<svg width="97" height="73" viewBox="0 0 97 73" fill="none" xmlns="http://www.w3.org/2000/svg">
<rect x="0.5" y="0.5" width="96" height="72" rx="3.5" stroke="url(#paint0_linear_1724_240)"/>
<path d="M13.2467 15.2016V13.2788H14.2244C14.8433 13.2788 15.22 13.6482 15.22 14.2449C15.22 14.8227 14.8433 15.2016 14.2244 15.2016H13.2467ZM14.3769 16.3288C15.6326 16.3288 16.4667 15.4574 16.4667 14.2355C16.4667 13.023 15.6326 12.1421 14.3769 12.1421H12.4077C12.1825 12.1421 12 12.3349 12 12.5726V18.4274C12 18.6651 12.1825 18.8579 12.4077 18.8579H13.2378V16.3288H14.3769Z" fill="#292A2E"/>
<path d="M20.4892 15.4953C20.4892 13.9797 21.4938 13.2598 22.4715 13.2598C23.4581 13.2598 24.4627 13.9797 24.4627 15.4953C24.4627 17.0108 23.4581 17.7307 22.4715 17.7307C21.4938 17.7307 20.4892 17.0108 20.4892 15.4953ZM19.2066 15.5047C19.2066 17.6644 20.7493 19 22.4715 19C24.2025 19 25.7453 17.6644 25.7453 15.5047C25.7453 13.3356 24.2025 12 22.4715 12C20.7493 12 19.2066 13.3356 19.2066 15.5047Z" fill="#292A2E"/>
<path d="M34.8752 16.7835L33.5491 12.4405C33.4948 12.2626 33.3381 12.1421 33.1611 12.1421H32.4725C32.2954 12.1421 32.1386 12.2628 32.0844 12.4408L30.7672 16.7645L29.6818 12.4618C29.6343 12.2733 29.4726 12.1421 29.2879 12.1421H28.8281C28.5585 12.1421 28.3631 12.4136 28.4353 12.6879L29.9757 18.5426C30.0247 18.729 30.1854 18.8579 30.3685 18.8579H31.0528C31.23 18.8579 31.3869 18.7371 31.441 18.5589L32.8032 14.0744L34.1654 18.5589C34.2196 18.7371 34.3765 18.8579 34.5537 18.8579H35.2197C35.403 18.8579 35.5638 18.7287 35.6126 18.5421L37.1452 12.6874C37.217 12.4131 37.0216 12.1421 36.7522 12.1421H36.3381C36.1526 12.1421 35.9905 12.2743 35.9437 12.4638L34.8752 16.7835Z" fill="#292A2E"/>
<path d="M43.9305 18.8579C44.1557 18.8579 44.3382 18.6651 44.3382 18.4274V18.0571C44.3382 17.8193 44.1557 17.6265 43.9305 17.6265H41.5936V16.0731H43.6704C43.8956 16.0731 44.0781 15.8803 44.0781 15.6425V15.3385C44.0781 15.1008 43.8956 14.908 43.6704 14.908H41.5936V13.3735H43.9305C44.1557 13.3735 44.3382 13.1807 44.3382 12.9429V12.5726C44.3382 12.3349 44.1557 12.1421 43.9305 12.1421H40.7635C40.5383 12.1421 40.3558 12.3349 40.3558 12.5726V18.4274C40.3558 18.6651 40.5383 18.8579 40.7635 18.8579H43.9305Z" fill="#292A2E"/>
<path d="M50.7285 18.6227C50.7981 18.767 50.9385 18.8579 51.0918 18.8579H51.5492C51.8557 18.8579 52.0526 18.5142 51.9103 18.2275L50.8598 16.111C51.694 15.8552 52.2142 15.1448 52.2142 14.207C52.2142 13.0419 51.4249 12.1421 50.1871 12.1421H48.1103C47.8852 12.1421 47.7026 12.3349 47.7026 12.5726V18.4274C47.7026 18.6651 47.8852 18.8579 48.1103 18.8579H48.5417C48.7668 18.8579 48.9494 18.6651 48.9494 18.4274V16.272H49.5952L50.7285 18.6227ZM48.9494 15.1448V13.2788H49.9539C50.5818 13.2788 50.9495 13.6482 50.9495 14.2165C50.9495 14.7659 50.5818 15.1448 49.9539 15.1448H48.9494Z" fill="#292A2E"/>
<path d="M59.0796 18.8579C59.3048 18.8579 59.4873 18.6651 59.4873 18.4274V18.0571C59.4873 17.8193 59.3048 17.6265 59.0796 17.6265H56.7427V16.0731H58.8195C59.0447 16.0731 59.2272 15.8803 59.2272 15.6425V15.3385C59.2272 15.1008 59.0447 14.908 58.8195 14.908H56.7427V13.3735H59.0796C59.3048 13.3735 59.4873 13.1807 59.4873 12.9429V12.5726C59.4873 12.3349 59.3048 12.1421 59.0796 12.1421H55.9126C55.6875 12.1421 55.5049 12.3349 55.5049 12.5726V18.4274C55.5049 18.6651 55.6875 18.8579 55.9126 18.8579H59.0796Z" fill="#292A2E"/>
<path d="M64.0895 17.6455V13.3545H65.0851C66.1256 13.3545 66.9866 14.046 66.9866 15.5047C66.9866 16.9635 66.1166 17.6455 65.0761 17.6455H64.0895ZM65.121 18.8579C66.9328 18.8579 68.2692 17.6265 68.2692 15.5047C68.2692 13.383 66.9418 12.1421 65.13 12.1421H63.2594C63.0343 12.1421 62.8517 12.3349 62.8517 12.5726V18.4274C62.8517 18.6651 63.0343 18.8579 63.2594 18.8579H65.121Z" fill="#292A2E"/>
<path d="M74.2487 12.1421C74.0236 12.1421 73.841 12.3349 73.841 12.5726V18.4274C73.841 18.6651 74.0236 18.8579 74.2487 18.8579H76.2986C77.4916 18.8579 78.2629 18.0717 78.2629 16.9824C78.2629 16.1488 77.7606 15.5521 77.1418 15.3911C77.6709 15.2016 78.0656 14.6428 78.0656 13.9513C78.0656 12.9093 77.366 12.1421 76.1282 12.1421H74.2487ZM75.0609 14.9175V13.2409H75.9309C76.5318 13.2409 76.8458 13.5629 76.8458 14.0744C76.8458 14.5859 76.5049 14.9175 75.9399 14.9175H75.0609ZM75.0609 17.7686V15.9973H76.0834C76.7023 15.9973 77.0252 16.3667 77.0252 16.8972C77.0252 17.4371 76.6664 17.7686 76.0654 17.7686H75.0609Z" fill="#292A2E"/>
<path d="M82.8367 16.0352V18.4274C82.8367 18.6651 83.0193 18.8579 83.2444 18.8579H83.6668C83.892 18.8579 84.0745 18.6651 84.0745 18.4274V16.0352L85.94 12.7964C86.1052 12.5095 85.9097 12.1421 85.5917 12.1421H85.1643C85.0174 12.1421 84.8819 12.2256 84.8095 12.3606L83.5005 14.8038L82.1914 12.3606C82.1191 12.2256 81.9835 12.1421 81.8366 12.1421H81.342C81.025 12.1421 80.8292 12.5075 80.9925 12.7944L82.8367 16.0352Z" fill="#292A2E"/>
<path d="M67.7837 25C63.591 25 59.0207 27.1484 54.1899 31.3802C51.8982 33.3854 49.9191 35.5339 48.4347 37.2526C48.4347 37.2526 48.4347 37.2526 48.4477 37.2657V37.2526C48.4477 37.2526 50.7915 39.8047 53.3826 42.5391C54.7759 40.8855 56.7811 38.6328 59.0858 36.6016C63.3826 32.8386 66.1821 32.0443 67.7837 32.0443C73.8123 32.0443 78.7082 36.8229 78.7082 42.6953C78.7082 48.5287 73.7993 53.3074 67.7837 53.3464C67.5103 53.3464 67.1587 53.3074 66.716 53.2162C68.4738 53.9714 70.3618 54.5183 72.1587 54.5183C83.2004 54.5183 85.3619 47.3178 85.5051 46.7969C85.8306 45.4818 85.9999 44.1016 85.9999 42.6823C85.9999 32.9427 77.8228 25 67.7837 25Z" fill="url(#paint1_linear_1724_240)"/>
<path d="M29.2162 60.4166C33.4089 60.4166 37.9792 58.2681 42.81 54.0363C45.1016 52.0311 47.0808 49.8827 48.5652 48.1639C48.5652 48.1639 48.5652 48.1639 48.5522 48.1509V48.1639C48.5522 48.1639 46.2084 45.6118 43.6172 42.8775C42.224 44.5311 40.2188 46.7837 37.9141 48.815C33.6172 52.578 30.8177 53.3723 29.2162 53.3723C23.1875 53.3593 18.2917 48.5806 18.2917 42.7082C18.2917 36.8749 23.2005 32.0962 29.2162 32.0571C29.4896 32.0571 29.8412 32.0962 30.2839 32.1873C28.5261 31.4321 26.6381 30.8853 24.8412 30.8853C13.7995 30.8853 11.651 38.0858 11.4948 38.5936C11.1693 39.9217 11 41.2889 11 42.7082C11 52.4738 19.1771 60.4166 29.2162 60.4166Z" fill="url(#paint2_linear_1724_240)"/>
<path d="M72.1332 54.362C66.4821 54.2188 60.6097 49.7657 59.4118 48.6589C56.3128 45.7943 49.1644 38.0469 48.6045 37.4349C43.3701 31.5625 36.2737 25 29.2164 25H29.2034H29.1904C20.6226 25.0391 13.4221 30.8464 11.495 38.5938C11.6383 38.086 14.4638 30.7422 24.8284 31.0026C30.4794 31.1458 36.3779 35.6641 37.5888 36.7709C40.6878 39.6354 47.8362 47.3829 48.3961 47.9948C53.6305 53.8542 60.7269 60.4167 67.7842 60.4167H67.7972H67.8102C76.378 60.3777 83.5915 54.5704 85.5056 46.823C85.3493 47.3308 82.5108 54.6094 72.1332 54.362Z" fill="#29ABE2"/>
<defs>
<linearGradient id="paint0_linear_1724_240" x1="14.2647" y1="10.7353" x2="64.296" y2="77.2152" gradientUnits="userSpaceOnUse">
<stop stop-color="#ED1E79"/>
<stop offset="1" stop-color="#522785"/>
</linearGradient>
<linearGradient id="paint1_linear_1724_240" x1="58.3012" y1="27.3352" x2="83.0682" y2="52.9823" gradientUnits="userSpaceOnUse">
<stop offset="0.21" stop-color="#F15A24"/>
<stop offset="0.6841" stop-color="#FBB03B"/>
</linearGradient>
<linearGradient id="paint2_linear_1724_240" x1="38.6987" y1="58.0814" x2="13.9316" y2="32.4343" gradientUnits="userSpaceOnUse">
<stop offset="0.21" stop-color="#ED1E79"/>
<stop offset="0.8929" stop-color="#522785"/>
</linearGradient>
</defs>
</svg>
