<?xml version="1.0" encoding="UTF-8"?>
<svg width="30px" height="23px" viewBox="0 0 30 23" version="1.1" xmlns="http://www.w3.org/2000/svg" xmlns:xlink="http://www.w3.org/1999/xlink">
    <g stroke="none" stroke-width="1" fill="none" fill-rule="evenodd">
        <g transform="translate(-867.000000, -734.000000)" fill="#FFFFFF" fill-rule="nonzero">
            <g transform="translate(522.000000, 231.000000)">
                <g transform="translate(83.000000, 173.000000)">
                    <g transform="translate(199.000000, 307.000000)">
                        <g transform="translate(63.000000, 22.000000)">
                            <g transform="translate(0.000000, 1.000000)">
                                <polygon points="26.8420869 0 25.2633044 1.64270195 23.6841739 3.28576602 22.1053914 4.92846797 20.5262608 6.57153203 18.9474783 8.21423398 17.3683478 9.85729805 15.7895653 11.5 14.2104347 13.1427019 12.6316522 14.785766 11.0525217 16.428468 9.47373916 14.785766 7.89460862 13.1427019 6.31582611 11.5 4.73669557 9.85729805 3.15791305 8.21423398 0 11.5 1.57878251 13.1430641 3.15791305 14.785766 4.73669557 16.428468 6.31582611 18.071532 7.89460862 19.714234 9.47373916 21.3572981 11.0525217 23 14.2104347 19.714234 15.7895653 18.071532 17.3683478 16.428468 18.9474783 14.785766 20.5262608 13.1427019 22.1053914 11.5 23.6841739 9.85729805 25.2633044 8.21423398 26.8420869 6.57153203 28.4212175 4.92846797 30 3.28576602"></polygon>
                            </g>
                        </g>
                    </g>
                </g>
            </g>
        </g>
    </g>
</svg>