<?xml version="1.0" encoding="UTF-8"?>
<svg width="100px" height="80px" viewBox="0 0 100 80" version="1.1" xmlns="http://www.w3.org/2000/svg" xmlns:xlink="http://www.w3.org/1999/xlink">
    <g stroke="none" stroke-width="1" fill="none" fill-rule="evenodd">
        <g transform="translate(-1121.000000, -548.000000)" fill="#000000" fill-rule="nonzero">
            <g transform="translate(522.000000, 241.000000)">
                <g transform="translate(122.000000, 196.000000)">
                    <g id="computer" transform="translate(477.000000, 111.000000)">
                        <path d="M96.7418487,0 L3.25802036,0 C1.46567508,0 0,1.461456 0,3.25967928 L0,65.085854 C0,66.8842083 1.46566198,68.3456643 3.25802036,68.3456643 L45.4447924,68.3456643 L45.4447924,75.8658132 L25.2328018,75.8658132 C24.0889991,75.8658132 23.1630743,76.7971683 23.1630743,77.9439706 C23.1630743,79.0758873 24.0889978,80 25.2328018,80 L75.707912,80 C76.8566724,80 77.7776396,79.0758847 77.7776396,77.9439706 C77.7776396,76.7971722 76.856675,75.8658132 75.707912,75.8658132 L55.6148201,75.8658132 L55.6148201,68.3456643 L96.7418487,68.3456643 C98.534469,68.3456643 100,66.8842083 100,65.085854 L100,3.25967928 C100,1.461456 98.534469,0 96.7418487,0 Z"></path>
                    </g>
                </g>
            </g>
        </g>
    </g>
</svg>