<?xml version="1.0" encoding="UTF-8"?>
<svg width="100px" height="59px" viewBox="0 0 100 59" version="1.1" xmlns="http://www.w3.org/2000/svg" xmlns:xlink="http://www.w3.org/1999/xlink">
    <g stroke="none" stroke-width="1" fill="none" fill-rule="evenodd">
        <g transform="translate(-912.000000, -582.000000)" fill="#000000" fill-rule="nonzero">
            <g transform="translate(522.000000, 231.000000)">
                <g transform="translate(83.000000, 173.000000)">
                    <g transform="translate(139.000000, 178.000000)">
                        <g transform="translate(168.000000, 0.000000)">
                            <path d="M18.1817804,0 L81.8181131,0 L81.8181133,0 C84.3284934,0 86.3635717,2.03193684 86.3635717,4.53846563 L86.3635717,49.9231219 L13.6362583,49.9231219 L13.6362583,4.53846563 L13.6362583,4.53846631 C13.6362583,2.03194817 15.6713259,0 18.1817167,0 L18.1817804,0 Z"></path>
                            <path d="M2.27272388,54.461545 L97.7272761,54.461545 C99.2424254,54.461545 100,55.2179552 100,56.7307725 L100,56.7307725 C100,58.2435908 99.2424243,59 97.7272761,59 L2.27272388,59 C0.757574628,59 0,58.2435898 0,56.7307725 L0,56.7307725 C0,55.2179542 0.757575693,54.461545 2.27272388,54.461545 Z" opacity="0.3"></path>
                        </g>
                    </g>
                </g>
            </g>
        </g>
    </g>
</svg>