<?xml version="1.0" encoding="UTF-8"?>
<svg width="28px" height="24px" viewBox="0 0 28 24" version="1.1" xmlns="http://www.w3.org/2000/svg" xmlns:xlink="http://www.w3.org/1999/xlink">
    <g stroke="none" stroke-width="1" fill="none" fill-rule="evenodd">
        <g transform="translate(-628.000000, -651.000000)" fill="#CCCCCC" fill-rule="nonzero">
            <g transform="translate(0.000000, -1.000000)" id="center">
                <g transform="translate(101.000000, 101.000000)">
                    <g id="wallet" transform="translate(53.000000, 514.000000)">
                        <g transform="translate(474.000000, 37.000000)">
                            <path d="M13.99999,21.8147433 L13.9999898,21.8147433 C10.7546567,21.8072447 7.73119559,20.178685 5.95636863,17.4821008 L3.41091671,17.4821008 L3.41091671,17.4821008 C5.40487138,21.476207 9.5087579,24.002247 14.0000106,23.9999985 L14.0000101,23.9999985 C20.1884734,23.9470933 25.3101732,19.209361 25.7981843,13.0863103 L28,13.0863103 L24.7672848,8.72841458 L21.5345696,13.0863103 L23.6345682,13.0863103 L23.6345682,13.0863098 C23.1406331,18.0109984 18.9863824,21.7745388 14.0000191,21.8147427 L13.99999,21.8147433 Z M14,0 L13.9999899,0 C8.23716408,0.0452393014 3.33333916,4.17817347 2.35454292,9.81475041 L0,9.81475041 L3.23271522,14.1852876 L6.46543044,9.81475041 L4.54361252,9.81475041 L4.5436127,9.81474958 C5.5289953,5.40874529 9.45265779,2.26407352 13.9999602,2.23580049 L13.9999605,2.23580049 C16.8132875,2.24039907 19.4832836,3.46840702 21.3054202,5.59579138 L21.7254199,5.49473883 L23.9145104,5.49473883 L23.9145104,5.49473809 C21.7803655,2.09418798 18.0365124,0.0193322412 13.9999809,0 L14,0 Z"></path>
                        </g>
                    </g>
                </g>
            </g>
        </g>
    </g>
</svg>