<?xml version="1.0" encoding="UTF-8"?>
<svg width="181px" height="206px" viewBox="0 0 181 206" version="1.1" xmlns="http://www.w3.org/2000/svg" xmlns:xlink="http://www.w3.org/1999/xlink">
    <defs>
        <linearGradient x1="-7.10542736e-13%" y1="40.2782416%" x2="100%" y2="50%" id="linearGradient-1">
            <stop stop-color="#D8EF5B" offset="0%"></stop>
            <stop stop-color="#62D631" offset="100%"></stop>
        </linearGradient>
        <linearGradient x1="-7.10542736e-13%" y1="40.2782416%" x2="100%" y2="50%" id="linearGradient-2">
            <stop stop-color="#F9FFD9" offset="0%"></stop>
            <stop stop-color="#CBFFA6" offset="49.7603239%"></stop>
            <stop stop-color="#9BFF72" offset="100%"></stop>
        </linearGradient>
        <linearGradient x1="18.8188551%" y1="31.7437044%" x2="103.306544%" y2="65.6974938%" id="linearGradient-3">
            <stop stop-color="#B1FC8D" offset="0%"></stop>
            <stop stop-color="#18BC3E" offset="100%"></stop>
        </linearGradient>
        <linearGradient x1="50%" y1="0%" x2="50%" y2="100%" id="linearGradient-4">
            <stop stop-color="#B1FC8D" offset="0%"></stop>
            <stop stop-color="#23F553" offset="100%"></stop>
        </linearGradient>
    </defs>
    <g stroke="none" stroke-width="1" fill="none" fill-rule="evenodd">
        <g transform="translate(90.500000, 103.000000) rotate(-24.000000) translate(-90.500000, -103.000000) translate(30.000000, 18.000000)" fill-rule="nonzero">
            <path d="M121,112.866399 C121,144.408908 95.4038242,170 63.8550494,170 C32.3062745,170 6.71009871,144.408908 6.71009871,112.866399 C6.71009871,81.3238906 32.3062745,55.7327987 63.8550494,55.7327987 C95.4038242,55.7327987 121,81.3238906 121,112.866399 Z" fill="url(#linearGradient-1)"></path>
            <path d="M114.289901,107.918134 C114.289901,139.460643 88.6937255,165.051735 57.1449506,165.051735 C25.5961758,165.051735 0,139.460643 0,107.918134 C0,76.3756253 25.5961758,50.7845333 57.1449506,50.7845333 C88.6937255,50.7845333 114.289901,76.3756253 114.289901,107.918134 Z" fill="url(#linearGradient-2)"></path>
            <path d="M39.0199671,58.1054286 L39.0213159,43.2267688 C39.0226108,28.9432553 50.9287935,17.0392493 65.214918,17.0379555 C80.0962977,17.0366078 91.4050671,28.9385115 91.4037723,43.2220249 L91.4024234,58.1006848 C96.1642491,60.4808391 100.925967,64.0512862 104.497174,67.6218411 L104.499386,43.2208389 C104.501383,21.2004224 86.6453456,3.34764778 64.6209037,3.34998387 C42.5964619,3.35163694 24.7371877,21.207646 24.7351914,43.2280626 L24.7329793,67.6290647 C29.4953445,64.0577551 33.6624546,60.4864994 39.0199671,58.1054286 Z" fill="url(#linearGradient-3)" transform="translate(64.616183, 35.489524) rotate(5.000000) translate(-64.616183, -35.489524) "></path>
            <path d="M30.9535149,57.3310917 L30.9535149,42.4525499 C30.9535149,28.1691497 42.858713,16.2663162 57.1449506,16.2663162 C72.0264482,16.2663162 83.3363864,28.1691497 83.3363864,42.4525499 L83.3363864,57.3310917 C88.0984656,59.7116584 92.8605448,63.2825084 96.4321042,66.8533585 L96.4321042,42.4525499 C96.4321042,20.4323079 78.5743071,2.57805772 56.5496907,2.57805772 C34.5250743,2.57805772 16.6672773,20.4323079 16.6672773,42.4525499 L16.6672773,66.8533585 C21.4293565,63.2825084 25.5961758,59.7116584 30.9535149,57.3310917 Z" fill="url(#linearGradient-4)"></path>
            <path d="M98.8131438,107.918134 C98.8131438,131.128659 80.3600868,149.578051 57.1449506,149.578051 C33.9298144,149.578051 15.4767575,131.128659 15.4767575,107.918134 C15.4767575,84.7076087 33.9298144,66.2582168 57.1449506,66.2582168 C80.3600868,66.2582168 98.8131438,85.3027504 98.8131438,107.918134 Z" fill="#FFBE1B"></path>
            <path d="M69.0501487,87.6833171 C64.8833294,87.6833171 56.5496907,83.5173253 56.5496907,83.5173253 C56.5496907,83.5173253 50.0018318,87.6833171 45.8350125,87.6833171 C41.6681932,87.6833171 37.5013739,85.3027504 37.5013739,85.3027504 L37.5013739,112.679267 C37.5013739,125.772384 54.1686511,135.889793 57.7402105,135.889793 C61.31177,135.889793 77.9790472,125.177242 77.9790472,112.679267 L77.9790472,85.3027504 C77.3837873,85.897892 73.216968,87.6833171 69.0501487,87.6833171 L69.0501487,87.6833171 Z" fill="#FFFFFF"></path>
        </g>
    </g>
</svg>
