<?xml version="1.0" encoding="UTF-8"?>
<svg width="401px" height="441px" viewBox="0 0 401 441" version="1.1" xmlns="http://www.w3.org/2000/svg" xmlns:xlink="http://www.w3.org/1999/xlink">
    <title>编组</title>
    <defs>
        <linearGradient x1="50.0022692%" y1="11.5697842%" x2="50.0022692%" y2="84.7205385%" id="linearGradient-1">
            <stop stop-color="#8AA7E7" offset="0%"></stop>
            <stop stop-color="#6A95F1" offset="100%"></stop>
        </linearGradient>
        <linearGradient x1="49.9989479%" y1="99.999876%" x2="49.9989479%" y2="0.00229343581%" id="linearGradient-2">
            <stop stop-color="#E9EFFA" offset="10.22%"></stop>
            <stop stop-color="#EBF2FA" offset="45.41%"></stop>
        </linearGradient>
        <linearGradient x1="49.9998714%" y1="99.9995889%" x2="49.9998714%" y2="0.000625698017%" id="linearGradient-3">
            <stop stop-color="#EBF2FA" offset="0%"></stop>
            <stop stop-color="#FDFEFF" offset="52.47%"></stop>
            <stop stop-color="#E9EFFB" offset="100%"></stop>
        </linearGradient>
        <linearGradient x1="32.1836447%" y1="34.1095908%" x2="64.603653%" y2="63.0140896%" id="linearGradient-4">
            <stop stop-color="#FAEFF8" offset="0%"></stop>
            <stop stop-color="#D8D4F4" offset="100%"></stop>
        </linearGradient>
        <linearGradient x1="49.9874958%" y1="84.9899856%" x2="49.9874958%" y2="-0.00901489417%" id="linearGradient-5">
            <stop stop-color="#ACC5EA" offset="0%"></stop>
            <stop stop-color="#E9E3F8" offset="100%"></stop>
        </linearGradient>
    </defs>
    <g id="用户中心---登录" stroke="none" stroke-width="1" fill="none" fill-rule="evenodd">
        <g id="编组" transform="translate(200.500000, 220.500000) scale(-1, 1) rotate(-11.000000) translate(-200.500000, -220.500000) translate(34.000000, 29.000000)" fill-rule="nonzero">
            <path d="M303.577293,383 L91.3483643,383 C75.0961595,383 61.9256569,369.824047 61.9256569,353.565116 L61.9256569,63.1432913 C61.9256569,46.8843602 75.0961595,33.7084068 91.3483643,33.7084068 L303.577293,33.7084068 C319.829497,33.7084068 333,46.8843602 333,63.1432913 L333,353.565116 C333,369.824047 319.829497,383 303.577293,383 Z" id="路径" fill="#2251B8"></path>
            <path d="M291.596842,371.263362 L88.2222572,371.263362 C71.9700524,371.263362 58.7995498,358.087408 58.7995498,341.828477 L58.7995498,56.0799852 C58.7995498,39.8210541 71.9700524,26.6451007 88.2222572,26.6451007 L291.596842,26.6451007 C307.849047,26.6451007 321.01955,39.8210541 321.01955,56.0799852 L321.01955,341.837362 C321.01955,358.087408 307.849047,371.263362 291.596842,371.263362 Z" id="路径" fill="url(#linearGradient-1)"></path>
            <path d="M287.43166,335.822446 L93.1423236,335.822446 C90.8510291,335.822446 88.994903,333.965552 88.994903,331.673309 L88.994903,53.299086 C88.994903,51.0068433 90.8510291,49.149949 93.1423236,49.149949 L287.43166,49.149949 C289.722954,49.149949 291.57908,51.0068433 291.57908,53.299086 L291.57908,331.673309 C291.570199,333.965552 289.714073,335.822446 287.43166,335.822446 Z" id="路径" fill="url(#linearGradient-2)"></path>
            <path d="M181.383803,333.16861 C163.239948,331.939849 63.4443056,324.396771 1.65040329,274.544934 C-1.40465598,272.074998 0.0251828095,267.001856 3.94169774,266.646469 C99.8474682,257.992809 88.1689713,86.9630695 88.8439262,54.1697829 C88.8972121,51.3888837 90.6734094,49.176603 93.4531581,49.176603 L287.103063,49.176603 C289.571977,49.176603 291.570199,51.1756519 291.570199,53.6455878 L281.428113,237.309316 C281.055111,238.322168 280.344633,240.285678 279.643035,241.103067 L206.152873,329.594298 C205.238132,330.660457 182.786999,333.263663 181.383803,333.16861 Z" id="路径" fill="url(#linearGradient-3)"></path>
            <path d="M208.302072,268.467825 C219.483234,269.169713 252.795813,269.427368 281.428113,237.309316 C274.643039,271.097685 231.072921,332.224158 174.456634,332.641737 C206.987686,315.885265 205.744348,284.860026 204.714154,270.946646 C204.598701,269.311868 206.676852,268.361209 208.302072,268.467825 Z" id="路径" fill="url(#linearGradient-4)"></path>
            <path d="M119.58102,107.237868 C119.58102,107.237868 121.534837,116.149183 119.58102,125.522502 C135.637843,125.522502 135.486866,125.522502 135.486866,125.522502 C135.486866,125.522502 138.239972,117.224228 135.415818,106.891366 C124.350109,106.811404 119.58102,107.237868 119.58102,107.237868 Z" id="路径" fill="#DCDEF5"></path>
            <path d="M271.31267,125.44254 L154.332319,125.44254 C154.332319,125.44254 155.264822,117.917231 154.332319,106.544864 C167.032129,106.544864 271.31267,106.544864 271.31267,106.544864 L271.31267,125.44254 L271.31267,125.44254 Z" id="路径" fill="#F2BF20"></path>
            <path d="M117.707132,162.127308 C117.707132,162.127308 119.660948,171.038624 117.707132,180.411942 C133.763955,180.411942 133.612978,180.411942 133.612978,180.411942 C133.612978,180.411942 136.366084,172.113668 133.54193,161.780806 C122.46734,161.69196 117.707132,162.127308 117.707132,162.127308 Z" id="路径" fill="#DCDEF5"></path>
            <path d="M269.4299,180.33198 L152.458431,180.33198 C152.458431,180.33198 153.390934,172.806672 152.458431,161.434305 C165.158241,161.434305 269.438781,161.434305 269.438781,161.434305 L269.438781,180.33198 L269.4299,180.33198 Z" id="路径" fill="#F2BF20"></path>
            <path d="M113.772855,220.632806 C113.772855,220.632806 113.080138,230.325972 106.854566,238.775285 C115.300384,238.775285 124.98954,239.112902 124.98954,239.112902 C124.98954,239.112902 132.049924,232.129558 130.66449,220.481767 C119.589901,220.401805 113.772855,220.632806 113.772855,220.632806 Z" id="路径" fill="#DCDEF5"></path>
            <path d="M268.497397,239.041825 L145.87762,239.041825 C145.87762,239.041825 149.634277,231.516517 148.701773,220.14415 C161.401584,220.14415 268.497397,220.14415 268.497397,220.14415 L268.497397,239.041825 Z" id="路径" fill="#F2BF20"></path>
            <path d="M246.294931,15.6991974 L228.506316,15.6991974 C225.6644,15.6991974 223.355344,13.4247239 223.355344,10.6082862 L223.355344,10.6082862 C223.355344,5.73060685 219.350019,1.76804769 214.412191,1.76804769 L167.653798,1.76804769 C162.71597,1.76804769 158.710645,5.72172219 158.710645,10.6082862 L158.710645,10.6082862 C158.710645,13.4158393 156.401589,15.6991974 153.559673,15.6991974 L135.771058,15.6991974 C129.341223,15.6991974 124.119204,20.8523012 124.119204,27.2048344 L124.119204,59.0474622 C124.119204,65.3999954 129.332343,70.5530992 135.771058,70.5530992 L246.303812,70.5530992 C252.733646,70.5530992 257.955666,65.3999954 257.955666,59.0385775 L257.955666,27.1959497 C257.937904,20.8523012 252.724765,15.6991974 246.294931,15.6991974 Z" id="路径" fill="#AFB0E7"></path>
            <path d="M243.213229,13.7623411 L225.84202,13.7623411 C223.062271,13.7623411 220.815382,11.505637 220.815382,8.73362253 L220.815382,8.73362253 C220.815382,3.90925118 216.907748,0 212.085372,0 L166.428222,0 C161.605847,0 157.698213,3.90925118 157.698213,8.73362253 L157.698213,8.73362253 C157.698213,11.5145217 155.442442,13.7623411 152.671574,13.7623411 L135.300365,13.7623411 C129.021508,13.7623411 123.923822,18.8532523 123.923822,25.1435928 L123.923822,56.6219495 C123.923822,62.9034054 129.012627,68.0032013 135.300365,68.0032013 L243.230991,68.0032013 C249.509848,68.0032013 254.607534,62.9122901 254.607534,56.6219495 L254.607534,25.1435928 C254.589772,18.8532523 249.492086,13.7623411 243.213229,13.7623411 Z" id="路径" fill="url(#linearGradient-5)"></path>
        </g>
    </g>
</svg>
