<?xml version="1.0" encoding="UTF-8"?>
<svg width="185px" height="184px" viewBox="0 0 185 184" version="1.1" xmlns="http://www.w3.org/2000/svg" xmlns:xlink="http://www.w3.org/1999/xlink">
    <defs>
        <linearGradient x1="23.0437819%" y1="57.5453933%" x2="54.3905779%" y2="88.8267772%" id="linearGradient-1">
            <stop stop-color="#FFF2EB" offset="0%"></stop>
            <stop stop-color="#F1DACB" offset="100%"></stop>
        </linearGradient>
        <linearGradient x1="61.3515809%" y1="77.0367624%" x2="9.94901954%" y2="25.7416181%" id="linearGradient-2">
            <stop stop-color="#FFF2EB" offset="0%"></stop>
            <stop stop-color="#F1DACB" offset="100%"></stop>
        </linearGradient>
        <linearGradient x1="49.3894393%" y1="40.8331042%" x2="71.0471222%" y2="62.4441913%" id="linearGradient-3">
            <stop stop-color="#F2BF20" offset="0%"></stop>
            <stop stop-color="#DAA500" offset="100%"></stop>
        </linearGradient>
        <linearGradient x1="37.3072113%" y1="37.3372275%" x2="62.6898332%" y2="62.6651186%" id="linearGradient-4">
            <stop stop-color="#8DDCFB" offset="0%"></stop>
            <stop stop-color="#0690C6" offset="100%"></stop>
        </linearGradient>
        <linearGradient x1="54.8376018%" y1="54.8300807%" x2="37.457561%" y2="37.4874824%" id="linearGradient-5">
            <stop stop-color="#41D9FC" offset="0%"></stop>
            <stop stop-color="#2B78DF" offset="100%"></stop>
        </linearGradient>
        <linearGradient x1="-15.663299%" y1="25.0395114%" x2="75.0178217%" y2="115.523244%" id="linearGradient-6">
            <stop stop-color="#4D4D4D" offset="0%"></stop>
            <stop stop-color="#333333" offset="100%"></stop>
        </linearGradient>
        <linearGradient x1="66.8942346%" y1="33.1421558%" x2="46.8612955%" y2="53.1321262%" id="linearGradient-7">
            <stop stop-color="#FAD45A" offset="0%"></stop>
            <stop stop-color="#B99116" offset="100%"></stop>
        </linearGradient>
        <linearGradient x1="25.0154713%" y1="25.0820903%" x2="112.527432%" y2="112.405134%" id="linearGradient-8">
            <stop stop-color="#E6E6E6" offset="0%"></stop>
            <stop stop-color="#999999" offset="100%"></stop>
        </linearGradient>
        <linearGradient x1="49.9922762%" y1="107.35142%" x2="49.9922762%" y2="-31.8372786%" id="linearGradient-9">
            <stop stop-color="#E6E6E6" stop-opacity="0" offset="0%"></stop>
            <stop stop-color="#DCDCDC" stop-opacity="0.143" offset="14.3%"></stop>
            <stop stop-color="#C2C2C2" stop-opacity="0.384" offset="38.4%"></stop>
            <stop stop-color="#979797" stop-opacity="0.692" offset="69.2%"></stop>
            <stop stop-color="#666666" offset="100%"></stop>
        </linearGradient>
        <linearGradient x1="52.3936753%" y1="47.6109849%" x2="38.1363394%" y2="61.8375624%" id="linearGradient-10">
            <stop stop-color="#E6E6E6" offset="0%"></stop>
            <stop stop-color="#999999" offset="100%"></stop>
        </linearGradient>
        <linearGradient x1="52.3950056%" y1="47.6099382%" x2="38.1376698%" y2="61.8365998%" id="linearGradient-11">
            <stop stop-color="#E6E6E6" offset="0%"></stop>
            <stop stop-color="#999999" offset="100%"></stop>
        </linearGradient>
    </defs>
    <g stroke="none" stroke-width="1" fill="none" fill-rule="evenodd">
        <g transform="translate(92.500000, 92.000000) rotate(7.000000) translate(-92.500000, -92.000000) translate(10.000000, 10.000000)" fill-rule="nonzero">
            <path d="M30.9843519,133.531496 L13.8984741,116.464008 L6.49253695,123.861974 C5.20192104,125.151201 4.388216,126.8401 4.18478973,128.651952 L0.497407538,161.501233 C0.336401919,162.934599 1.54956801,164.146459 2.98447838,163.985627 L35.8691531,160.301892 C37.6829569,160.099006 39.373998,159.285856 40.6642925,157.996629 L48.0702297,150.598663 L30.9843519,133.531496 Z" fill="url(#linearGradient-1)"></path>
            <path d="M30.5743547,133.348271 L24.9014564,127.681428 L17.523391,135.051619 C16.2376322,136.336005 15.1356447,137.72785 14.3983184,138.998485 L1.02783588,162.037807 C0.444506081,163.042993 0.847266174,163.445323 1.85352609,162.862616 L24.9177845,149.506723 C26.1900966,148.770184 27.5834288,147.669373 28.8688674,146.384986 L36.2469329,139.014795 L30.5743547,133.348271 Z" fill="url(#linearGradient-2)"></path>
            <path d="M112.573412,18.4244601 L146.555688,52.370161 L161.816409,37.1258657 C166.061197,32.885646 166.061197,26.0110119 161.816409,21.7707922 L143.20575,3.18016477 C138.960962,-1.06005492 132.078921,-1.06005492 127.834132,3.18016477 L112.573412,18.4244601 Z" fill="url(#linearGradient-3)"></path>
            <path d="M141.539331,57.3115844 L41.0326812,157.709578 C44.1809095,154.564754 44.1809095,149.466418 41.0355751,146.324484 C37.8873468,143.179659 32.7834935,143.179659 29.6352652,146.324484 C32.7834935,143.179659 32.7863873,138.083893 29.638159,134.939389 C26.4899307,131.794886 21.3886498,131.797455 18.240743,134.94228 C21.3889713,131.797455 21.3889713,126.69912 18.240743,123.554295 C15.0954086,120.412361 9.99155527,120.412361 6.84332697,123.557186 L107.349334,23.1585493 L141.539331,57.3115844 Z" fill="url(#linearGradient-4)"></path>
            <path d="M130.247451,45.8425819 L29.5511895,146.429851 C32.7053471,143.279098 32.7082464,138.173725 29.5540889,135.023293 C26.3999314,131.872861 21.2890429,131.875436 18.1352076,135.026189 L118.831146,34.4382763 L130.247451,45.8425819 Z" fill="url(#linearGradient-5)"></path>
            <path d="M1.27793888,150.177827 L0.0140386336,161.436701 C-0.143047455,162.835173 1.04058525,164.017532 2.44056406,163.860615 L13.7115693,162.598075 L1.27793888,150.177827 Z" fill="url(#linearGradient-6)"></path>
            <polygon fill="url(#linearGradient-7)" points="126.802596 2.97789741 112.033849 17.7308455 146.465439 52.1252793 161.234186 37.3723311"></polygon>
            <polygon fill="url(#linearGradient-8)" points="141.909329 57.3245977 107.210764 22.6636329 116.873159 13.0113845 151.571724 47.6723493"></polygon>
            <polygon fill="url(#linearGradient-9)" points="114.264455 15.6304895 114.264455 25.402157 143.783421 54.848056 151.366349 47.2836598 116.94905 12.9519271"></polygon>
            <path d="M147.624778,50.0163371 L114.728099,17.1552596 C113.119462,15.5483625 113.119462,12.9430648 114.728099,11.3364916 L114.728099,11.3364916 C116.336737,9.72959452 118.944858,9.72959452 120.553171,11.3364916 L153.44985,44.1975692 C155.058488,45.8044662 155.058488,48.4097639 153.44985,50.0163371 L153.44985,50.0163371 C151.841537,51.6235581 149.233092,51.6235581 147.624778,50.0163371 Z" fill="url(#linearGradient-10)"></path>
            <path d="M137.446712,59.1943987 L104.550033,26.3331269 C102.941395,24.7262203 102.941395,22.1209072 104.550033,20.5143245 L104.550033,20.5143245 C106.158671,18.9074179 108.766791,18.9074179 110.375105,20.5143245 L143.271784,53.3755963 C144.880422,54.9825029 144.880422,57.587816 143.271784,59.1943987 L143.271784,59.1943987 C141.66347,60.8013053 139.055026,60.8013053 137.446712,59.1943987 Z" fill="url(#linearGradient-11)"></path>
        </g>
    </g>
</svg>
