<?xml version="1.0" encoding="UTF-8"?>
<svg width="180px" height="133px" viewBox="0 0 180 133" version="1.1" xmlns="http://www.w3.org/2000/svg" xmlns:xlink="http://www.w3.org/1999/xlink">
    <title>nopic</title>
    <g id="个人中心" stroke="none" stroke-width="1" fill="none" fill-rule="evenodd">
        <g id="用户中心备份-4" transform="translate(-861.000000, -480.000000)" fill-rule="nonzero">
            <g id="center" transform="translate(101.000000, 101.000000)">
                <g id="nopic" transform="translate(760.000000, 379.000000)">
                    <path d="M5.19930676,132.791932 L6.10051993,132.791932 L6.10051993,127.971691 L11.2998267,120.654636 L10.2253033,120.654636 L5.66724437,127.174098 L1.12651646,120.654636 L0,120.654636 L5.19930676,127.98903 L5.19930676,132.791932 Z M17.3830156,133 C20.017331,133 21.9410745,130.849965 21.9410745,128.370488 L21.9410745,128.33581 C21.9410745,125.856334 20.034662,123.740977 17.4176776,123.740977 C14.7833622,123.740977 12.8596187,125.891012 12.8596187,128.370488 L12.8596187,128.405166 C12.8596187,130.884643 14.7660312,133 17.3830156,133 Z M17.4176776,132.202406 C15.372617,132.202406 13.7781629,130.503185 13.7781629,128.370488 L13.7781629,128.33581 C13.7781629,126.255131 15.2859619,124.53857 17.3830156,124.53857 C19.4280763,124.53857 21.0225303,126.237792 21.0225303,128.370488 L21.0225303,128.405166 C21.0225303,130.485846 19.5147314,132.202406 17.4176776,132.202406 Z M27.9202773,133 C29.5320624,133 30.5199307,132.185067 31.1091854,131.144728 L31.1091854,132.791932 L31.9584055,132.791932 L31.9584055,123.949045 L31.1091854,123.949045 L31.1091854,129.064048 C31.1091854,130.901982 29.7746967,132.219745 28.0415945,132.219745 C26.2564991,132.219745 25.2339688,131.023355 25.2339688,129.20276 L25.2339688,123.949045 L24.3847487,123.949045 L24.3847487,129.358811 C24.3847487,131.474168 25.6845754,133 27.9202773,133 Z M35.1819757,132.791932 L36.0311958,132.791932 L36.0311958,129.168082 C36.0311958,126.289809 37.8162912,124.746638 39.8613518,124.746638 L39.9480069,124.746638 L39.9480069,123.810333 C38.1975737,123.740977 36.7244367,124.88535 36.0311958,126.463199 L36.0311958,123.949045 L35.1819757,123.949045 L35.1819757,132.791932 Z M51.0398614,133 C52.7902946,133 53.9168111,131.976999 54.6793761,130.815287 L54.6793761,132.791932 L55.5285962,132.791932 L55.5285962,120.134466 L54.6793761,120.134466 L54.6793761,125.856334 C53.9514731,124.746638 52.8076256,123.740977 51.0398614,123.740977 C48.9081456,123.740977 46.7417678,125.492215 46.7417678,128.370488 L46.7417678,128.405166 C46.7417678,131.283439 48.9081456,133 51.0398614,133 Z M51.1265165,132.185067 C49.2720971,132.185067 47.660312,130.693914 47.660312,128.370488 L47.660312,128.33581 C47.660312,125.960368 49.202773,124.555909 51.1265165,124.555909 C52.9636049,124.555909 54.7313692,126.081741 54.7313692,128.353149 L54.7313692,128.387827 C54.7313692,130.641897 52.9636049,132.185067 51.1265165,132.185067 Z M62.6689775,133 C65.3032929,133 67.2270364,130.849965 67.2270364,128.370488 L67.2270364,128.33581 C67.2270364,125.856334 65.3206239,123.740977 62.7036395,123.740977 C60.0693241,123.740977 58.1455806,125.891012 58.1455806,128.370488 L58.1455806,128.405166 C58.1455806,130.884643 60.0519931,133 62.6689775,133 Z M62.7036395,132.202406 C60.6585789,132.202406 59.0641248,130.503185 59.0641248,128.370488 L59.0641248,128.33581 C59.0641248,126.255131 60.5719237,124.53857 62.6689775,124.53857 C64.7140381,124.53857 66.3084922,126.237792 66.3084922,128.370488 L66.3084922,128.405166 C66.3084922,130.485846 64.8006932,132.202406 62.7036395,132.202406 Z M69.8440208,132.791932 L70.6932409,132.791932 L70.6932409,127.676929 C70.6932409,125.838995 72.0277296,124.521231 73.7608319,124.521231 C75.5459272,124.521231 76.5684575,125.717622 76.5684575,127.538217 L76.5684575,132.791932 L77.4176776,132.791932 L77.4176776,127.382166 C77.4176776,125.266808 76.117851,123.740977 73.882149,123.740977 C72.270364,123.740977 71.2824957,124.555909 70.6932409,125.596249 L70.6932409,123.949045 L69.8440208,123.949045 L69.8440208,132.791932 Z M80.0693241,123.983723 C81.1091854,123.584926 81.507799,123.012739 81.507799,121.937721 L81.507799,120.654636 L80.3639515,120.654636 L80.3639515,122.12845 L80.8318891,122.12845 C80.8838821,122.787332 80.6065858,123.16879 79.8613518,123.550248 L80.0693241,123.983723 Z M87.4003466,132.947983 C87.9549393,132.947983 88.3882149,132.843949 88.8388215,132.635881 L88.8388215,131.838287 C88.3362218,132.063694 87.9722704,132.150389 87.5389948,132.150389 C86.5164645,132.150389 85.7712305,131.699575 85.7712305,130.433829 L85.7712305,124.729299 L88.8734835,124.729299 L88.8734835,123.949045 L85.7712305,123.949045 L85.7712305,121.122788 L84.9220104,121.122788 L84.9220104,123.949045 L83.6395147,123.949045 L83.6395147,124.729299 L84.9220104,124.729299 L84.9220104,130.520524 C84.9220104,132.202406 86.0311958,132.947983 87.4003466,132.947983 Z M96.5857886,132.791932 L97.4350087,132.791932 L97.4350087,127.676929 C97.4350087,125.838995 98.7694974,124.521231 100.5026,124.521231 C102.287695,124.521231 103.310225,125.717622 103.310225,127.538217 L103.310225,132.791932 L104.159445,132.791932 L104.159445,127.382166 C104.159445,125.266808 102.859619,123.740977 100.623917,123.740977 C99.0121317,123.740977 98.0242634,124.555909 97.4350087,125.596249 L97.4350087,120.134466 L96.5857886,120.134466 L96.5857886,132.791932 Z M109.896014,133 C111.577123,133 112.668977,132.167728 113.275563,131.318117 L113.275563,132.791932 L114.107452,132.791932 L114.107452,127.278132 C114.107452,126.185775 113.795494,125.370842 113.206239,124.781316 C112.564991,124.139774 111.611785,123.810333 110.415945,123.810333 C109.202773,123.810333 108.249567,124.122435 107.279029,124.573248 L107.590988,125.318825 C108.405546,124.902689 109.289428,124.607926 110.363951,124.607926 C112.183709,124.607926 113.275563,125.526893 113.275563,127.31281 L113.275563,127.694268 C112.426343,127.468861 111.577123,127.31281 110.34662,127.31281 C108.058925,127.31281 106.481802,128.353149 106.481802,130.191083 L106.481802,130.225761 C106.481802,132.063694 108.249567,133 109.896014,133 Z M109.948007,132.202406 C108.596187,132.202406 107.383016,131.456829 107.383016,130.173744 L107.383016,130.139066 C107.383016,128.907997 108.422877,128.075725 110.294627,128.075725 C111.559792,128.075725 112.54766,128.283793 113.292894,128.474522 L113.292894,129.480184 C113.292894,131.092711 111.750433,132.202406 109.948007,132.202406 Z M120.225303,132.861288 L120.953206,132.861288 L124.92201,123.949045 L123.968804,123.949045 L120.589255,131.838287 L117.244367,123.949045 L116.256499,123.949045 L120.225303,132.861288 Z M130.970537,133 C132.668977,133 133.72617,132.30644 134.627383,131.335456 L134.038128,130.815287 C133.310225,131.595541 132.37435,132.202406 131.005199,132.202406 C129.272097,132.202406 127.694974,130.919321 127.538995,128.717268 L134.870017,128.717268 C134.887348,128.578556 134.887348,128.526539 134.887348,128.370488 C134.887348,125.7523 133.310225,123.740977 130.831889,123.740977 C128.440208,123.740977 126.637782,125.786978 126.637782,128.353149 L126.637782,128.387827 C126.637782,131.144728 128.64818,133 130.970537,133 Z M127.538995,127.954352 C127.694974,125.995046 129.046794,124.521231 130.797227,124.521231 C132.824957,124.521231 133.847487,126.168436 133.968804,127.954352 L127.538995,127.954352 Z M142.755633,132.791932 L143.622184,132.791932 L143.622184,122.007077 L152.166378,132.791932 L152.842288,132.791932 L152.842288,120.654636 L151.975737,120.654636 L151.975737,131.214084 L143.604853,120.654636 L142.755633,120.654636 L142.755633,132.791932 Z M156.44714,132.791932 L157.348354,132.791932 L157.348354,127.295471 L164.211438,127.295471 L164.211438,126.463199 L157.348354,126.463199 L157.348354,121.486907 L164.991334,121.486907 L164.991334,120.654636 L156.44714,120.654636 L156.44714,132.791932 Z M171.17851,132.791932 L172.079723,132.791932 L172.079723,121.486907 L176.308492,121.486907 L176.308492,120.654636 L166.94974,120.654636 L166.94974,121.486907 L171.17851,121.486907 L171.17851,132.791932 Z M179.185442,129.618896 L179.670711,129.618896 L179.930676,121.868365 L179.930676,120.654636 L178.925477,120.654636 L178.925477,121.868365 L179.185442,129.618896 Z M178.856153,132.791932 L180,132.791932 L180,131.318117 L178.856153,131.318117 L178.856153,132.791932 Z" id="形状结合" fill="#666666"></path>
                    <path d="M119.099116,0 C120.321898,0 121.317158,0.997525233 121.317158,2.22309113 L121.317158,79.5172758 C121.317158,80.7434513 120.322506,81.7409766 119.099724,81.7409766 L61.6386905,81.7409766 C60.4159082,81.7409766 59.4206487,80.7434514 59.4206487,79.5178855 L59.4206487,16.2408821 L59.6458343,16.2428135 C59.6092276,16.2016663 59.5784365,16.1536429 59.5557022,16.0975945 C59.4011815,15.7177301 59.7674078,15.3579868 59.887861,15.2396984 L75.093554,0.45669088 C75.2690811,0.284697036 75.4518071,0.176626703 75.6250934,0.13151031 L75.6252514,0 L119.099116,0 Z M76.2256922,0.281697144 C76.0679168,0.122519932 75.8547986,0.0717048581 75.6250934,0.13151031 L75.6252514,0.60973423 L76.412488,0.608206745 C76.4506512,0.733534563 76.469042,0.879667455 76.4673242,1.04569421 L76.3321533,15.0939718 C76.3254616,15.9024795 75.6812195,16.4890439 74.8003296,16.4890439 L60.4475424,16.4890439 C60.3629525,16.4890439 60.1977006,16.4890439 60.029348,16.4492768 L60.028998,16.2408821 L59.6458343,16.2428135 C59.7455987,16.3549521 59.8885576,16.4160204 60.029348,16.4492768 L60.028998,79.5172758 C60.028998,80.4068781 60.7511087,81.1306327 61.6386905,81.1306327 L119.099724,81.1306327 C119.987306,81.1306327 120.709416,80.4062684 120.709416,79.5172758 L120.709416,2.22309113 C120.709416,1.33348879 119.987306,0.60973423 119.099724,0.60973423 L76.412488,0.608206745 C76.3721647,0.475784899 76.3097672,0.366590077 76.2256922,0.281697144 Z M80.433645,29.4971149 L93.5764252,49.0622683 L103.3526,37.5248764 L114.349124,52.463366 L66.4227502,52.463366 L80.433645,29.4971149 Z M106.25686,30.0123403 C107.592795,30.0123403 108.675657,31.0976674 108.675657,32.438473 C108.675657,33.77623 107.592795,34.8627765 106.25686,34.8627765 C104.9191,34.8627765 103.836238,33.7768397 103.836238,32.438473 C103.836238,31.0976674 104.9191,30.0123403 106.25686,30.0123403 Z M75.7925475,0.709730749 C75.7955892,0.713389114 75.69947,0.715828089 75.5181819,0.893870544 L60.3124889,15.6768778 C60.232795,15.7549239 60.1871689,15.8134584 60.1610099,15.8530911 C60.2145446,15.8665052 60.303972,15.8793097 60.4475424,15.8793097 L74.8003296,15.8793097 C75.2419912,15.8793097 75.7195456,15.6317576 75.7244123,15.0878746 L75.8595135,1.03959697 C75.8612909,0.816434254 75.8101896,0.724364307 75.7925475,0.709730749 Z" id="形状结合" fill="#BBBBBB"></path>
                </g>
            </g>
        </g>
    </g>
</svg>