<?xml version="1.0" encoding="UTF-8"?>
<svg width="402px" height="350px" viewBox="0 0 402 350" version="1.1" xmlns="http://www.w3.org/2000/svg" xmlns:xlink="http://www.w3.org/1999/xlink">
    <defs>
        <path d="M346.70754,0 L83.6472836,0 L83.6472837,0 C81.5611461,0.00203716294 79.8685019,1.68685797 79.8685019,3.76580918 L79.8685019,98.5265272 L143.53273,98.5265272 L143.53273,98.5265272 C147.121251,98.530863 150.02925,101.428825 150.033596,105.004963 L150.033596,185.176342 L346.707814,185.176342 L346.707814,185.176342 C347.812986,185.176342 348.862404,184.692605 349.579212,183.854329 L349.579212,183.854329 C349.609069,183.821853 349.636425,183.787178 349.661047,183.750599 L349.661047,183.750599 C349.886759,183.475755 350.069483,183.168489 350.203025,182.839212 L350.203025,182.839212 C350.393737,182.386214 350.490176,181.899711 350.490176,181.408462 L350.490176,3.7664544 L350.490176,3.76658734 C350.490176,1.68613606 348.795593,0 346.707929,0 L346.70754,0 Z" id="path-1"></path>
        <filter x="-7.2%" y="-10.5%" width="114.4%" height="121.1%" filterUnits="objectBoundingBox" id="filter-2">
            <feOffset dx="0" dy="0" in="SourceAlpha" result="shadowOffsetOuter1"></feOffset>
            <feGaussianBlur stdDeviation="6.5" in="shadowOffsetOuter1" result="shadowBlurOuter1"></feGaussianBlur>
            <feColorMatrix values="0 0 0 0 0   0 0 0 0 0   0 0 0 0 0  0 0 0 0.0650677448 0" type="matrix" in="shadowBlurOuter1"></feColorMatrix>
        </filter>
    </defs>
    <g stroke="none" stroke-width="1" fill="none" fill-rule="evenodd">
        <g transform="translate(-354.000000, -235.000000)" fill-rule="nonzero">
            <g transform="translate(354.000000, 235.000000)">
                <g transform="translate(0.000000, 20.052083)">
                    <path d="M98.8944979,27.2400666 L98.8944979,27.240067 C98.8944979,28.655677 100.046049,29.803255 101.46656,29.803255 C102.887071,29.803255 104.038623,28.655677 104.038623,27.240067 L104.038623,27.240067 C104.038623,25.824457 102.887071,24.6768791 101.46656,24.6768791 C100.046049,24.6768791 98.8944979,25.824457 98.8944979,27.240067 L98.8944979,27.2400666 Z" fill="#CCCCCC"></path>
                    <path d="M106.288314,27.2400666 L106.288314,27.240067 C106.288314,28.655677 107.439865,29.803255 108.860376,29.803255 C110.280887,29.803255 111.432438,28.655677 111.432438,27.240067 L111.432438,27.240067 C111.432438,25.824457 110.280887,24.6768791 108.860376,24.6768791 C107.439865,24.6768791 106.288314,25.824457 106.288314,27.240067 L106.288314,27.2400666 Z" fill="#CCCCCC"></path>
                    <path d="M113.682129,27.2400666 L113.682129,27.2400664 C113.682129,28.6556764 114.833681,29.8032544 116.254192,29.8032544 C117.674703,29.8032544 118.826254,28.6556764 118.826254,27.2400664 C118.826254,27.2400663 118.826254,27.2400662 118.826254,27.2400661 L118.826254,27.2400661 C118.826254,25.8244561 117.674703,24.6768781 116.254192,24.6768781 C114.833681,24.6768781 113.682129,25.8244561 113.682129,27.2400661 L113.682129,27.2400666 Z" fill="#CCCCCC"></path>
                    <path d="M287.602309,103.407561 L180.308597,103.407561 L180.308596,103.407561 C177.839454,103.407561 175.83781,105.402293 175.83781,107.862922 C175.83781,110.323545 177.839447,112.318284 180.308596,112.318284 L287.602308,112.318284 L287.602308,112.318284 C290.071451,112.318284 292.073095,110.323552 292.073095,107.862922 C292.073095,105.402299 290.071458,103.407561 287.602308,103.407561 L287.602309,103.407561 Z" fill="#E5E5F0"></path>
                    <path d="M287.602309,119.85693 L180.308597,119.85693 L180.308596,119.85693 C177.839454,119.85693 175.83781,121.851661 175.83781,124.312291 C175.83781,126.772914 177.839447,128.767652 180.308596,128.767652 L287.602308,128.767652 L287.602308,128.767652 C290.071451,128.767652 292.073095,126.772921 292.073095,124.312291 C292.073095,121.851668 290.071458,119.85693 287.602308,119.85693 L287.602309,119.85693 Z" fill="#E5E5F0"></path>
                    <g>
                        <use fill="black" fill-opacity="1" filter="url(#filter-2)" xlink:href="#path-1"></use>
                        <use fill="#FFFFFF" xlink:href="#path-1"></use>
                    </g>
                    <polygon fill="#D4D9E3" points="80.4054977 15.0951871 349.951156 15.0951871 349.951156 16.1718268 80.4054977 16.1718268"></polygon>
                    <path d="M282.786869,38.6024526 L147.570928,38.6024526 L147.570928,38.6024526 C144.458736,38.6030777 141.936932,41.1178121 141.936932,44.2192891 C141.936932,47.3198771 144.459628,49.8332302 147.570928,49.8338459 L282.786869,49.8338459 L282.786869,49.8338459 C285.899061,49.8344707 288.423152,47.3207434 288.423152,44.2192891 C288.423152,41.1178349 285.901349,38.6030911 282.789156,38.6024526 C282.7884,38.6024526 282.787643,38.6024526 282.786886,38.6024526 L282.786869,38.6024526 Z M282.786869,48.9675268 L147.570928,48.9675268 L147.570928,48.9675268 C144.938038,48.9675268 142.803666,46.8405189 142.803666,44.216713 C142.803666,41.5929071 144.938038,39.4658993 147.570928,39.4658993 L282.786869,39.4658993 L282.786869,39.4658993 C285.419759,39.4658993 287.554131,41.5929071 287.554131,44.216713 C287.554131,46.8405189 285.419759,48.9675268 282.786869,48.9675268 C282.786869,48.9675268 282.786869,48.9675268 282.786869,48.9675268 L282.786869,48.9675268 Z" id="形状" fill="#D4D9E3"></path>
                    <path d="M324.16076,83.3327433 L188.946191,83.3327433 L188.946192,83.3327433 C185.833999,83.3321183 183.309908,85.8458458 183.309908,88.9473 C183.309908,92.0487543 185.831712,94.5634981 188.943904,94.5641365 C188.944661,94.5641365 188.945418,94.5641365 188.946175,94.5641365 L324.160743,94.5641365 L324.160743,94.5641365 C327.272936,94.5635113 329.794739,92.0487771 329.794739,88.9473 C329.794739,85.8467121 327.272044,83.3333589 324.160743,83.3327433 L324.16076,83.3327433 Z" fill="#E5E5F0"></path>
                    <path d="M167.094619,74.0471884 L105.545981,74.0471884 L105.545981,74.0471884 C102.797063,74.0503421 100.569402,76.2703072 100.566245,79.0097432 L100.566245,98.5237482 L101.432692,98.5237482 L101.432692,79.0097432 L101.432692,79.0098381 C101.436197,76.7478339 103.275333,74.9149473 105.545169,74.9113681 L167.094493,74.9113681 L167.094493,74.9113681 C169.364983,74.9133403 171.205094,76.7470953 171.207061,79.0097469 L171.207061,140.346707 L171.207061,140.346601 C171.205141,142.609257 169.365086,144.443065 167.094585,144.445094 L150.032693,144.445094 L150.032693,145.309267 L167.095317,145.309267 L167.095317,145.309267 C169.844624,145.307294 172.072743,143.086522 172.074344,140.346713 L172.074344,79.0097524 L172.074344,79.0096437 C172.0727,76.2695489 169.844075,74.0487075 167.094493,74.0471884 L167.094619,74.0471884 Z" fill="#D4D9E3"></path>
                    <path d="M36.330157,129.664542 C36.1571546,129.671696 28.7927245,129.16378 28.6075188,129.156626 L29.2686592,122.575169 L33.4616374,122.449263 L41.4743,107.659604 L41.4743,107.659603 C40.5622992,105.775774 41.3554082,103.511846 43.2457618,102.60301 C43.5141522,102.473972 43.7968402,102.37684 44.0879993,102.313617 C48.838745,101.240554 50.4704126,108.685453 45.705319,109.676975 L39.075248,127.754501 L39.0752479,127.754501 C38.6486869,128.900431 37.5537658,129.662633 36.3273133,129.667413 L36.330157,129.664542 Z" fill="#FFB8B8"></path>
                    <path d="M16.9179192,133.053377 C9.91240402,133.070525 9.29719444,122.519468 16.3185125,121.775479 C34.8850401,120.657349 32.5354945,116.010278 33.9453546,129.716132 L33.9453546,129.716132 C34.0354179,130.562738 33.4207347,131.322202 32.5713873,131.413717 L17.525941,133.019018 L17.5259414,133.019018 C17.324023,133.041197 17.1210647,133.052659 16.9179241,133.053377 L16.9179192,133.053377 Z" fill="#3D7FFC"></path>
                    <path d="M15.3214123,99.6941143 C24.9729257,105.167442 17.0492812,119.6073 7.21829713,114.465171 C-2.43536664,108.99255 5.48683893,94.5519855 15.3214123,99.6941143 Z" fill="#FFB8B8"></path>
                    <polygon fill="#FFB8B8" points="24.0934503 223.996899 28.3093962 223.996899 30.3150736 207.790801 24.0927251 207.790801"></polygon>
                    <path d="M23.1905268,227.89774 L36.4406261,227.89774 C36.3903765,221.084503 27.5277851,223.047507 23.1897947,222.796395 L23.1905268,227.89774 Z" fill="#2F2E41"></path>
                    <polygon fill="#FFB8B8" points="5.86658839 223.996899 10.0825343 223.996899 12.0882118 207.790801 5.86586321 207.790801"></polygon>
                    <path d="M4.96352762,227.89774 L18.214359,227.89774 C18.1633916,221.084503 9.30151805,223.047507 4.96352762,222.796395 L4.96352762,227.89774 Z" fill="#2F2E41"></path>
                    <path d="M10.6582367,218.337478 C9.63960537,218.059196 4.10210153,218.901908 3.44884884,217.795224 C1.16679717,195.00124 1.67431933,172.693794 6.73947545,160.436387 L24.157435,159.374055 C28.0524965,166.456277 37.0069722,213.479266 31.6044379,216.337132 L24.6599335,216.583935 L24.6599336,216.583935 C23.84337,216.611619 23.1195923,216.063934 22.9270388,215.272652 L17.1167363,182.332424 C15.6702652,180.317214 12.8261454,217.022342 12.355948,216.885103 L12.355948,216.885102 C12.2295909,217.72168 11.5071565,218.339643 10.6582299,218.337313 L10.6582367,218.337478 Z" fill="#2F2E41"></path>
                    <path d="M6.18744993,163.317412 C-2.60622896,154.148443 3.00306038,129.56811 2.71880075,130.091079 C2.74320783,129.488734 4.73452773,120.218905 9.88726308,118.693722 C13.9747134,117.349533 18.5014782,121.370645 19.0578273,125.438271 L25.1810991,161.475279 L25.1810991,161.475279 C25.2451447,161.873064 25.1156384,162.277504 24.8322233,162.564795 C25.1330042,163.499075 6.61746298,163.127796 6.18745909,163.317412 L6.18744993,163.317412 Z" fill="#3D7FFC"></path>
                    <path d="M9.04091241,106.143005 L9.04091255,106.143005 C9.73510677,105.587782 10.2847211,104.873932 10.6431568,104.061979 C13.0120786,102.717075 15.7327218,105.970599 18.2372994,104.756608 C25.3189008,97.9812826 18.0398902,95.9825321 11.5174851,95.6255725 L11.517485,95.6255725 C10.0614425,95.4759173 8.60772422,95.9296698 7.49751949,96.8803409 C-5.53148145,95.8888308 0.717403491,113.152985 8.93968301,115.433601 C10.39118,116.067424 11.4808854,114.784756 10.2002301,113.618694 C8.43287916,111.768019 6.23841588,108.043053 9.04089875,106.143037 L9.04091241,106.143005 Z" fill="#2F2E41"></path>
                    <path d="M144.271265,98.3283295 C147.498044,98.3330714 150.112688,100.938708 150.117414,104.154376 L150.117414,104.154376 L150.117414,222.731368 C150.112656,225.947037 147.498021,228.552665 144.271219,228.557392 L144.271219,228.557392 L50.0439337,228.557392 C46.8171545,228.552651 44.2025106,225.947014 44.1977842,222.731346 L44.1977842,222.731346 L44.1977842,104.154354 C44.2025425,100.938686 46.8171774,98.3330579 50.0439795,98.3283295 L50.0439795,98.3283295 Z" id="形状" fill="#6A95F1"></path>
                    <path d="M23.4940939,148.225849 C20.388673,148.576382 19.0247483,141.374701 17.8374279,139.539042 L24.0224425,137.146104 L26.0324276,140.813842 L42.8926197,141.23162 L42.8926194,141.231621 C42.9927581,141.096235 43.1021299,140.967879 43.2199595,140.847464 C46.5637046,137.35857 52.0093377,142.585826 48.6756352,146.069702 L48.6756352,146.069702 C47.2383146,147.590102 44.8363459,147.661471 43.3106865,146.22911 C43.2023927,146.127439 43.1001919,146.01951 43.0046122,145.905881 C42.5911295,145.934496 23.9011344,148.236583 23.4941211,148.225845 L23.4940939,148.225849 Z" fill="#FFB8B8"></path>
                    <path d="M18.9135471,144.788477 C17.8798404,145.781417 9.94040449,131.840199 9.36108766,131.449591 C5.34972358,125.23656 14.7930636,119.102226 18.8733308,125.281631 L27.1286184,137.920162 L27.1286184,137.920162 C27.5935108,138.634107 27.3908963,139.588325 26.6756537,140.05341 C26.2959111,140.227246 19.1791238,145.163326 18.9135312,144.788471 L18.9135471,144.788477 Z" fill="#3D7FFC"></path>
                    <path d="M125.700368,180.407612 L68.6139617,180.407612 C62.7828419,180.379713 62.7584559,171.527666 68.6139617,171.496912 L125.700368,171.496912 C131.527897,171.52195 131.559466,180.376859 125.700368,180.407612 Z" fill="#F5F8FF"></path>
                    <path d="M125.700368,196.85698 L68.6139617,196.85698 C62.7828419,196.829081 62.7584559,187.977034 68.6139617,187.946281 L125.700368,187.946281 C131.527897,187.971319 131.559466,196.826227 125.700368,196.85698 Z" fill="#F4F4F7"></path>
                    <path d="M125.700368,213.307033 L68.6139617,213.307033 C62.7828419,213.279133 62.7584559,204.427087 68.6139617,204.396333 L125.700368,204.396333 C131.527897,204.421371 131.559466,213.276279 125.700368,213.307033 Z" fill="#F4F4F7"></path>
                    <path d="M147.022128,109.294956 L147.022128,109.294956 C142.083843,109.294956 138.080577,105.305502 138.080577,100.384256 C138.080577,95.4630099 142.083843,91.4735564 147.022128,91.4735564 C151.960412,91.4735564 155.963678,95.4630099 155.963678,100.384256 C155.963678,100.384256 155.963678,100.384256 155.963678,100.384256 L155.963678,100.384256 C155.963678,105.305502 151.960412,109.294956 147.022128,109.294956 L147.022128,109.294956 Z" fill="#3D7FFC"></path>
                    <path d="M151.148308,100.041773 L147.365225,100.041773 L147.365225,95.7580977 L147.365225,95.7580976 C147.365225,95.5688493 147.211278,95.4154342 147.021373,95.4154342 C146.83147,95.4154342 146.677521,95.5688504 146.677521,95.7580976 C146.677521,95.7580977 146.677521,95.7580977 146.677521,95.7580978 L146.677521,100.041773 L142.894439,100.041773 L142.894439,100.041773 C142.704535,100.041773 142.550586,100.195189 142.550586,100.384438 C142.550586,100.573687 142.704534,100.727104 142.894439,100.727104 L146.677521,100.727104 L146.677521,105.010779 L146.677521,105.010779 C146.677521,105.200027 146.831468,105.353445 147.021371,105.353445 C147.211274,105.353445 147.365223,105.200029 147.365223,105.010781 C147.365223,105.010781 147.365223,105.010781 147.365223,105.010781 L147.365223,100.727106 L151.148306,100.727106 L151.148306,100.727106 C151.338209,100.727106 151.492158,100.57369 151.492158,100.384441 C151.492158,100.195192 151.33821,100.041775 151.148306,100.041775 L151.148308,100.041773 Z" fill="#FFFFFF"></path>
                    <path d="M124.668881,160.80561 L69.6454495,160.80561 L69.6454495,160.80561 C66.5155511,160.800489 63.9795645,158.273243 63.9744171,155.154144 L63.9744171,124.442349 L63.9744171,124.442474 C63.979486,121.323375 66.5154365,118.79607 69.6453121,118.790895 L124.668743,118.790895 L124.668743,118.790895 C127.798641,118.796014 130.334628,121.323261 130.339775,124.44236 L130.339775,155.149139 L130.339775,155.149014 C130.334707,158.268114 127.798756,160.795419 124.66888,160.800594 L124.668881,160.80561 Z" fill="#9EC0FF"></path>
                    <path d="M205.293751,69.2504153 L205.293751,69.2504153 C204.464818,69.2504153 203.791393,69.9173471 203.786262,70.7434038 L203.416569,230.894436 L203.416569,230.894465 C203.416569,231.720537 204.085837,232.391625 204.914754,232.396725 L334.380076,232.693605 L334.380076,232.693605 C335.209009,232.693605 335.882434,232.026673 335.887565,231.200616 L336.257258,71.0495837 L336.257258,71.0495549 C336.257258,70.2234822 335.58799,69.5523945 334.759073,69.547297 L205.293751,69.2504153 Z" fill="#EEEEFD"></path>
                    <path d="M210.088144,74.0512919 L210.088144,74.0512919 C209.259211,74.0512919 208.585786,74.7182237 208.580655,75.5442804 L208.233216,226.115673 L208.233216,226.115701 C208.233216,226.941774 208.902485,227.612862 209.731401,227.617961 L329.584603,227.892666 L329.584603,227.892666 C330.413536,227.892666 331.086961,227.225734 331.092092,226.399678 L331.439531,75.8276012 L331.439531,75.8275727 C331.439531,75.0015 330.770263,74.3304123 329.941346,74.3253148 L210.088144,74.0512919 Z" fill="#CBDBFD"></path>
                    <path d="M314.022029,139.435918 L225.709842,139.233456 L225.709842,139.233456 C224.465507,139.252655 223.441157,138.262967 223.421626,137.022926 C223.402636,135.782884 224.395751,134.762068 225.640085,134.74288 C225.666689,134.742469 225.693298,134.742528 225.719899,134.743057 L314.033001,134.945508 L314.033001,134.945508 C315.277238,134.970239 316.265773,135.995459 316.241414,137.235402 C316.21676,138.444401 315.236227,139.417199 314.022947,139.435918 L314.022029,139.435918 Z" fill="#F4F4F7"></path>
                    <path d="M314.877599,97.6036081 L256.287997,97.4691142 C255.462468,97.4691142 254.795584,96.4604355 254.798446,95.2206904 C254.801326,93.9809454 255.472518,92.9772752 256.298047,92.978703 L314.887648,93.113195 C315.713177,93.113195 316.380062,94.1218737 316.3772,95.3616188 C316.374319,96.6013638 315.703128,97.6057499 314.877599,97.6036081 L314.877599,97.6036081 Z" fill="#F4F4F7"></path>
                    <path d="M314.84786,110.475402 L256.258258,110.340908 C255.432729,110.340908 254.765845,109.332229 254.768706,108.092484 C254.771587,106.852739 255.442779,105.849069 256.268308,105.850496 L314.857909,105.984989 C315.683438,105.984989 316.350323,106.993667 316.347461,108.233412 C316.34458,109.473157 315.67267,110.477544 314.84786,110.475402 L314.84786,110.475402 Z" fill="#F4F4F7"></path>
                    <path d="M313.987715,153.953663 L225.674612,153.751212 L225.674612,153.751212 C224.430278,153.770411 223.405927,152.780723 223.386397,151.540681 C223.367407,150.30064 224.360521,149.279824 225.604856,149.260636 C225.63146,149.260225 225.658068,149.260284 225.68467,149.260813 L313.997772,149.463264 L313.997772,149.463264 C315.242107,149.444065 316.266457,150.433753 316.285988,151.673794 C316.304978,152.913836 315.311863,153.934652 314.067528,153.95384 C314.040925,153.954251 314.014316,153.954191 313.987715,153.953663 L313.987715,153.953663 Z" fill="#F4F4F7"></path>
                    <path d="M313.9534,168.472331 L225.640298,168.269879 L225.640298,168.269879 C224.395963,168.289079 223.371613,167.299391 223.352082,166.059349 C223.333092,164.819308 224.326207,163.798492 225.570542,163.779303 C225.597145,163.778893 225.623754,163.778952 225.650355,163.779481 L313.963457,163.981932 L313.963457,163.981932 C315.207795,163.962956 316.231966,164.952829 316.251278,166.192872 C316.27005,167.432916 315.27675,168.453554 314.032413,168.472531 C314.00584,168.472936 313.979261,168.472873 313.95269,168.472341 L313.9534,168.472331 Z" fill="#F4F4F7"></path>
                    <path d="M313.919086,182.990772 L225.605984,182.788319 L225.605984,182.788319 C224.361649,182.807519 223.337299,181.81783 223.317768,180.577789 C223.298778,179.337748 224.291893,178.316932 225.536227,178.297743 C225.562831,178.297333 225.58944,178.297392 225.616041,178.29792 L313.929143,178.500372 L313.929143,178.500372 C315.173375,178.525274 316.161769,179.55063 316.137245,180.790562 C316.112415,181.999593 315.131695,182.97227 313.918375,182.990772 L313.919086,182.990772 Z" fill="#F4F4F7"></path>
                    <path d="M313.889347,197.509438 L225.576245,197.306987 L225.576245,197.306987 C224.33191,197.326186 223.30756,196.336498 223.288029,195.096457 C223.269039,193.856415 224.262154,192.835599 225.506488,192.816411 C225.533092,192.816 225.559701,192.81606 225.586302,192.816588 L313.899404,193.019039 L313.899404,193.019039 C315.143739,192.99984 316.168089,193.989528 316.18762,195.22957 C316.20661,196.469611 315.213495,197.490427 313.969161,197.509616 C313.942557,197.510026 313.915948,197.509967 313.889347,197.509438 L313.889347,197.509438 Z" fill="#F4F4F7"></path>
                    <path d="M313.852745,212.027194 L225.539643,211.824743 L225.539643,211.824743 C224.295411,211.799841 223.307017,210.774484 223.331542,209.534552 C223.356371,208.325522 224.337091,207.352845 225.550411,207.334342 L313.863513,207.536794 L313.863513,207.536794 C315.107848,207.517594 316.132198,208.507282 316.151729,209.747324 C316.170719,210.987365 315.177604,212.008181 313.933269,212.02737 C313.906666,212.02778 313.880057,212.027721 313.853456,212.027192 L313.852745,212.027194 Z" fill="#F4F4F7"></path>
                    <path d="M223.542322,101.762054 L223.542322,101.762053 C223.542322,108.292513 228.854633,113.586494 235.407702,113.586494 C241.960772,113.586494 247.273083,108.292513 247.273083,101.762053 C247.273083,101.762053 247.273083,101.762053 247.273083,101.762052 L247.273083,101.762052 C247.273083,95.2315923 241.960772,89.9376108 235.407702,89.9376108 C228.854633,89.9376108 223.542322,95.2315923 223.542322,101.762052 C223.542322,101.762052 223.542322,101.762052 223.542322,101.762053 L223.542322,101.762054 Z" fill="#3F3D56"></path>
                    <path d="M303.432637,98.2811397 L303.432637,70.3050169 L303.432638,70.3050047 C303.625508,61.5656038 296.672653,54.3251005 287.902971,54.1328967 C279.133312,53.9406918 271.86774,60.8695577 271.674871,69.6089814 C271.674871,69.6089816 271.674871,69.6089815 271.674871,69.6089817 L275.170811,69.6089817 L275.170811,69.6089817 C275.428905,62.9809953 280.890639,57.7376238 287.546583,57.7280262 L287.728917,57.7280262 L287.728917,57.7280261 C294.576838,57.8374113 300.041481,63.4541526 299.939567,70.2785602 L299.939567,98.5015774 L299.939567,98.5015814 C299.879147,103.03288 296.179247,106.676362 291.63187,106.682609 L291.529218,106.682609 L291.529217,106.682609 C286.936066,106.617852 283.263109,102.858641 283.320574,98.2812458 L283.339956,70.4932005 L283.339956,70.4931998 C283.303103,68.1897183 285.147032,66.2925981 287.458495,66.2558717 C289.769952,66.2191453 291.673641,68.0567122 291.710494,70.3602006 C291.711058,70.3954693 291.711174,70.4307438 291.71084,70.4660152 L291.71084,91.6861678 L291.71084,91.6861704 C291.69128,92.6476247 292.457533,93.4428367 293.422316,93.4623306 C294.387099,93.4818233 295.185064,92.7182141 295.204626,91.7567599 C295.205104,91.7332324 295.205104,91.7096977 295.204626,91.6861704 L295.204626,70.4395274 L295.204626,70.4395476 C295.197302,66.2120679 291.752447,62.7909503 287.510354,62.7982454 C283.268238,62.8055435 279.835275,66.2385127 279.842596,70.4659696 C279.842596,70.4659697 279.842596,70.4659697 279.842596,70.4659698 L279.823932,98.2597144 L279.823932,98.2597223 C279.752114,104.753091 284.968331,110.078988 291.483998,110.16498 L291.627568,110.16498 L291.627568,110.16498 C298.089133,110.155351 303.345465,104.976732 303.429055,98.5379858 C303.433362,98.4478486 303.433362,98.356996 303.432644,98.2811654 L303.432637,98.2811397 Z" fill="#3D7FFC"></path>
                    <polygon fill="#E2E7F2" points="193.024102 232.422997 368.421855 232.422997 368.421855 233.333333 193.024102 233.333333"></polygon>
                    <path d="M358.582574,121.691882 L378.011271,121.691882 L378.011271,112.062931 L378.011271,112.062815 C378.018039,109.462308 376.995529,106.964046 375.165598,105.110127 L375.165598,105.110127 C373.359991,103.264738 370.882121,102.225657 368.295761,102.229295 L368.295761,102.229295 C362.976176,102.239066 358.650584,106.504476 358.584655,111.805319 L358.584655,112.062855 L358.582574,121.691882 Z" fill="#2F2E41"></path>
                    <path d="M354.659306,174.090033 L354.659306,174.090033 C356.250979,174.288403 357.702641,173.163361 357.901709,171.577182 C357.936199,171.302349 357.930926,171.024004 357.886051,170.750664 L357.148099,166.255248 L353.507146,166.255248 L352.24301,170.370794 L352.24301,170.370793 C351.773126,171.899209 352.635524,173.517842 354.169231,173.986098 C354.32949,174.035027 354.493698,174.07004 354.660017,174.090744 L354.659306,174.090033 Z" fill="#FFB9B9"></path>
                    <path d="M399.24959,227.708523 L394.925966,228.2379 L372.625173,181.673341 L360.033337,228.2379 L355.482163,226.878688 L359.729701,152.193472 L379.757766,151.135433 C387.349758,160.100504 393.317266,198.713558 399.24959,227.708491 L399.24959,227.708523 Z" fill="#2F2E41"></path>
                    <path d="M357.589747,233.079563 L348.518259,233.079563 L348.518259,233.079563 C347.646146,233.079563 346.929222,232.39412 346.893043,231.525765 L346.893043,231.525765 C346.867295,230.908007 347.196418,230.329451 347.741544,230.034208 L352.958895,227.206321 L356.173436,226.352162 C357.588322,227.968194 358.942188,227.976777 360.245101,226.67265 L360.675812,229.511982 L360.675812,229.511981 C360.931131,231.208891 359.757729,232.790776 358.054955,233.045216 C357.901922,233.068083 357.747393,233.079563 357.59265,233.079563 L357.589747,233.079563 Z" fill="#2F2E41"></path>
                    <path d="M396.57765,233.079563 L387.506163,233.079563 L387.506162,233.079563 C386.634049,233.079563 385.917125,232.39412 385.880946,231.525765 L385.880946,231.525765 C385.855199,230.908007 386.184321,230.329451 386.729447,230.034208 L391.946798,227.206321 L395.161339,226.352162 C396.576225,227.968194 397.930091,227.976777 399.233714,226.67265 L399.664424,229.511982 L399.664424,229.511981 C399.919743,231.208891 398.746341,232.790776 397.043567,233.045216 C396.890534,233.068083 396.736006,233.079563 396.581262,233.079563 L396.57765,233.079563 Z" fill="#2F2E41"></path>
                    <path d="M352.296195,167.314001 L357.909076,167.011397 L361.398542,126.645644 L358.757577,127.040531 L358.757577,127.040531 C356.74069,127.342205 355.184543,128.966262 354.975226,130.987969 L352.296195,167.314001 Z" fill="#92B4F3"></path>
                    <path d="M359.424418,111.980474 L359.424418,111.980475 C359.424418,116.07165 362.752447,119.388173 366.857764,119.388173 C370.963103,119.388173 374.29111,116.071627 374.29111,111.980475 L374.29111,111.980475 C374.29111,107.8893 370.96308,104.572776 366.857764,104.572776 C362.752424,104.572776 359.424418,107.889323 359.424418,111.980475 L359.424418,111.980474 Z" fill="#FFB9B9"></path>
                    <path d="M375.80835,124.680603 C370.183254,141.047674 365.23726,142.190843 360.638,135.565752 C361.042868,130.629664 362.687467,126.629291 365.644296,123.61898 C367.361397,122.445765 366.347791,120.217377 365.037711,117.873795 L372.16813,115.455119 C372.370564,118.443955 373.682797,121.52651 375.80835,124.680603 Z" fill="#FFB9B9"></path>
                    <path d="M380.131952,151.817559 C371.987202,157.421082 364.660802,158.456944 359.80311,153.176771 L359.803108,153.176761 C358.133882,146.097434 357.720146,138.7817 358.580609,131.560278 L358.580609,131.560279 C358.844714,129.26122 360.125145,127.199777 362.072248,125.938861 L365.645716,123.619626 L367.390097,129.138024 L374.137912,121.80542 L379.238252,122.419211 L379.238252,122.419211 C381.287067,122.665697 382.754987,124.509809 382.52961,126.554088 L380.131952,151.817559 Z" fill="#92B4F3"></path>
                    <path d="M375.181543,106.3842 L373.335228,112.238106 L357.372354,111.951957 L357.372354,111.95196 C357.517201,106.522973 362.050926,102.23891 367.498732,102.383262 C370.540969,102.463871 373.375696,103.938912 375.180833,106.380627 L375.181543,106.3842 Z" fill="#2F2E41"></path>
                    <path d="M378.347608,167.799126 L378.347608,167.799126 C378.197748,167.798732 378.07594,167.919478 378.075542,168.068821 C378.075542,168.068822 378.075542,168.068822 378.075542,168.068823 L378.008781,196.992856 L378.008781,196.992855 C378.008384,197.142199 378.129548,197.263586 378.279409,197.263983 C378.27941,197.263983 378.27941,197.263983 378.279411,197.263983 L401.661172,197.317637 L401.661172,197.317637 C401.811033,197.318032 401.932841,197.197285 401.933239,197.047942 C401.933239,197.047942 401.933239,197.047941 401.933239,197.04794 L402,168.123907 L402,168.123908 C402.000396,167.974565 401.879232,167.853177 401.729371,167.85278 C401.729371,167.85278 401.72937,167.85278 401.72937,167.85278 L378.347608,167.799126 Z" fill="#E6E6E6"></path>
                    <path d="M379.212329,168.666106 L379.212329,168.666106 C379.062468,168.665712 378.94066,168.786458 378.940262,168.935801 C378.940262,168.935802 378.940262,168.935802 378.940262,168.935803 L378.877808,196.129296 L378.877808,196.129295 C378.877411,196.278638 378.998575,196.400026 379.148437,196.400422 C379.148437,196.400422 379.148438,196.400422 379.148438,196.400422 L400.794537,196.449783 L400.794537,196.449783 C400.944236,196.449783 401.065812,196.329267 401.066603,196.180087 L401.129057,168.986594 L401.129057,168.986595 C401.129454,168.837252 401.00829,168.715864 400.858429,168.715467 C400.858428,168.715467 400.858427,168.715467 400.858427,168.715467 L379.212329,168.666106 Z" fill="#FFFFFF"></path>
                    <path d="M397.984536,180.53748 L382.034588,180.498301 L382.034588,180.498301 C381.809796,180.498301 381.627565,180.303286 381.627565,180.062722 C381.627565,179.822159 381.809795,179.627144 382.034588,179.627144 L397.984536,179.666323 L397.984536,179.666323 C398.209328,179.666323 398.391559,179.861338 398.391559,180.101901 C398.391559,180.342464 398.209329,180.53748 397.984536,180.53748 L397.984536,180.53748 Z" fill="#E6E6E6"></path>
                    <path d="M398.137807,172.99531 L387.556673,172.968811 C387.40736,172.968811 387.28748,172.770065 387.28748,172.526113 C387.28748,172.282162 387.409515,172.084975 387.55811,172.084975 L398.139243,172.111474 C398.288556,172.111474 398.408437,172.31022 398.408437,172.554172 C398.408437,172.798123 398.286402,172.99531 398.137807,172.99531 L398.137807,172.99531 Z" fill="#E6E6E6"></path>
                    <path d="M398.133231,175.319492 L387.552098,175.292992 C387.402785,175.292992 387.282905,175.094246 387.282905,174.850294 C387.282905,174.606343 387.40494,174.409156 387.553535,174.409156 L398.135377,174.435655 C398.28469,174.435655 398.404571,174.634401 398.404571,174.878353 C398.404571,175.122305 398.281818,175.319492 398.133222,175.319492 L398.133231,175.319492 Z" fill="#E6E6E6"></path>
                    <path d="M397.977673,183.160077 L382.027725,183.120898 L382.027725,183.120898 C381.802933,183.120898 381.620703,182.925883 381.620703,182.68532 C381.620703,182.444757 381.802933,182.249741 382.027725,182.249741 L397.977673,182.28892 L397.977673,182.28892 C398.202465,182.28892 398.384696,182.483935 398.384696,182.724499 C398.384696,182.965062 398.202466,183.160077 397.977673,183.160077 L397.977673,183.160077 Z" fill="#E6E6E6"></path>
                    <path d="M397.973098,185.779027 L382.02315,185.739848 L382.02315,185.739848 C381.798358,185.739848 381.616127,185.544833 381.616127,185.30427 C381.616127,185.063707 381.798357,184.868691 382.02315,184.868691 L397.972389,184.907871 L397.972389,184.907871 C398.197181,184.90769 398.379546,185.102559 398.379716,185.343121 C398.379884,185.583684 398.197791,185.778844 397.973,185.779027 C397.972807,185.779027 397.972615,185.779027 397.972423,185.779027 L397.973098,185.779027 Z" fill="#E6E6E6"></path>
                    <path d="M397.966235,188.404008 L382.016287,188.364812 L382.016287,188.364812 C381.791693,188.354708 381.617276,188.151591 381.626714,187.911139 C381.635597,187.684848 381.804921,187.503567 382.016287,187.494059 L397.966235,187.533255 L397.966235,187.533255 C398.190829,187.523148 398.380551,187.709881 398.389992,187.950333 C398.399431,188.190785 398.225015,188.393903 398.000421,188.40401 C397.989032,188.404523 397.977627,188.404523 397.966237,188.40401 L397.966235,188.404008 Z" fill="#E6E6E6"></path>
                    <path d="M397.963948,191.026274 L382.013999,190.987095 L382.013999,190.987095 C381.789207,190.987095 381.606977,190.792081 381.606977,190.551517 C381.606977,190.310954 381.789207,190.115939 382.013999,190.115939 L397.963948,190.155118 L397.963948,190.155118 C398.18874,190.155298 398.370833,190.350459 398.370664,190.591022 C398.370495,190.831344 398.18848,191.026113 397.963913,191.026274 L397.963948,191.026274 Z" fill="#E6E6E6"></path>
                    <path d="M397.954797,193.64778 L382.004849,193.608617 L382.004849,193.608617 C381.780255,193.618714 381.590533,193.432137 381.581097,193.191888 C381.571659,192.951638 381.746077,192.748691 381.97067,192.738597 C381.982058,192.738085 381.993461,192.738085 382.004849,192.738597 L397.954797,192.777759 L397.954797,192.777759 C398.179589,192.77794 398.361682,192.973019 398.361513,193.213481 C398.361344,193.453702 398.179329,193.648389 397.954763,193.648549 L397.954797,193.64778 Z" fill="#E6E6E6"></path>
                    <path d="M381.644068,173.671019 L381.644068,173.67098 C381.64366,174.850326 382.602686,175.806703 383.786115,175.807111 C384.969545,175.807518 385.929233,174.851801 385.929643,173.672455 C385.929643,173.67199 385.929643,173.671524 385.929643,173.671059 L385.929643,173.671099 C385.930051,172.491753 384.971025,171.535376 383.787596,171.534967 C382.604166,171.53456 381.644478,172.490278 381.644068,173.669624 C381.644068,173.670089 381.644068,173.670554 381.644068,173.671019 L381.644068,173.671019 Z" fill="#3F3D56"></path>
                    <path d="M386.184994,169.857949 L386.184993,169.857949 C384.59332,170.056318 383.141659,168.931276 382.94259,167.345097 C382.9081,167.070264 382.913373,166.791921 382.958249,166.51858 L383.696201,162.023164 L387.337153,162.023164 L388.60129,166.138709 L388.60129,166.138709 C389.071174,167.667124 388.208775,169.285758 386.675068,169.754013 C386.514809,169.802943 386.350601,169.837956 386.184282,169.85866 L386.184994,169.857949 Z" fill="#FFB9B9"></path>
                    <path d="M388.55268,163.081233 L382.939799,162.778629 L379.451042,122.412875 L382.092007,122.807762 L382.092007,122.807762 C384.108894,123.109436 385.665041,124.733493 385.874358,126.7552 L388.55268,163.081233 Z" fill="#92B4F3"></path>
                </g>
                <g id="元数据插画" transform="translate(109.636364, 193.229167)">
                    <path d="M88.8451132,0.140771566 C112.593951,0.140771566 134.093397,5.05725658 149.903713,12.8997224 L86.0660477,46.1531655 L86.0660477,0.195107443 C87.0588553,0.140771566 87.9187427,0.140771566 88.8450978,0.140771566 L88.8451132,0.140771566 Z" fill="#1B90FB"></path>
                    <polygon fill="#1277D7" points="149.903713 12.8997264 149.903713 36.0226191 86.0680419 69.2802012 86.0680419 46.1573084"></polygon>
                    <path d="M86.0359822,23.183292 L86.0359822,69.3243797 L24.5905186,101.229627 C9.39634605,92.9786408 0.00199428119,81.7331427 0.00199428119,69.3243797 C0.00199428119,56.8613515 9.39640741,45.6721727 24.6570922,37.3628741 C40.1856208,28.942838 61.9105588,23.5696316 86.0359822,23.1812225 L86.0359822,23.183292 Z" fill="#FFD255"></path>
                    <polygon fill="#FFBC00" points="86.0358288 69.3243797 86.0358288 92.5156403 24.5905186 124.420888 24.5905186 101.229627"></polygon>
                    <path d="M1.70569623,78.3844982 L1.70569609,78.3844978 C0.586386336,75.4944696 0.00822199634,72.4234353 0,69.3245019 L0,92.5157626 C0,104.922441 9.39642261,116.16797 24.5906718,124.42101 L24.5906718,101.22975 C13.1945401,95.0415097 5.06281696,87.1688456 1.70575745,78.3846204 L1.70569623,78.3844982 Z" fill="#FFC31B"></path>
                    <path d="M155.395884,39.7414924 C172.221218,48.201936 182.727273,59.9826654 182.727273,73.0896695 C182.727273,86.1423319 172.219224,97.9775563 155.395884,106.381435 L91.2943784,73.0916623 L155.39389,39.7414924 L155.395884,39.7414924 Z" fill="#DAE7FF"></path>
                    <path d="M155.395884,106.381435 L155.395884,129.534527 C168.640692,122.917639 182.727273,111.533244 182.727273,96.2427606 L182.727273,73.0916623 C182.727273,88.4324247 168.622576,99.7765809 155.395884,106.383428 L155.395884,106.381435 Z" fill="#AEC1E8"></path>
                    <polygon fill="#C3D3F3" points="155.395884 106.381435 155.395884 129.534527 91.2943784 96.2427606 91.2943784 73.0916623"></polygon>
                    <path d="M87.4334148,87.6335538 L151.597353,120.885075 C135.704356,128.785899 114.096306,133.645932 90.2265926,133.645932 C89.3606554,133.645932 88.4302705,133.645932 87.4998964,133.591597 C63.4309225,133.261556 41.8207243,127.902442 26.1291364,119.450199 L87.4334762,87.6335538 L87.4334148,87.6335538 Z" fill="#7CE3B0"></path>
                    <path d="M90.2265926,133.645948 C89.3606554,133.645948 88.4302705,133.645948 87.4998964,133.591612 C63.4309225,133.25956 41.8207243,127.902457 26.1291364,119.450215 L26.1291364,142.5751 C41.8227185,151.027343 63.4309225,156.384438 87.4998964,156.716497 C88.4302751,156.770833 89.3626694,156.770833 90.2265926,156.770833 C108.129376,156.770833 124.761432,154.037944 138.662741,149.338896 L138.662742,149.338896 C143.090179,147.856695 147.412265,146.076999 151.599393,144.011999 L151.599393,120.885121 C135.706397,128.785945 114.096199,133.645978 90.226639,133.645978 L90.2265926,133.645948 Z" fill="#2CCD7F"></path>
                    <path d="M11.7405047,22.71836 L11.7405047,22.7183594 C11.7405047,35.2653911 21.5202932,45.4367169 33.5843242,45.4367169 C45.6483091,45.4367169 55.4281436,35.2653451 55.4281436,22.7183594 C55.4281436,22.7183591 55.4281436,22.7183588 55.4281436,22.7183585 L55.4281436,22.7183575 C55.4281436,10.1713258 45.6483551,0 33.5843242,0 C21.5203393,0 11.7405047,10.1713718 11.7405047,22.7183575 L11.7405047,22.71836 Z" fill="#D0F4E3"></path>
                    <path d="M16.8475762,22.71836 L16.8475762,22.7183594 C16.846691,32.3323034 24.3392722,40.1267124 33.5827135,40.1276322 C42.8261702,40.1285529 50.3201517,32.3356605 50.3210721,22.7217318 C50.3210721,22.7206208 50.3210721,22.7195098 50.3210721,22.7183988 L50.3210721,22.7183978 C50.3219565,13.1044539 42.8293761,5.31004483 33.5859348,5.30912508 C24.3424781,5.3082052 16.8484966,13.1010968 16.8475762,22.7150254 C16.8475762,22.7161365 16.8475762,22.7172475 16.8475762,22.7183585 L16.8475762,22.71836 Z" fill="#B4EFD1"></path>
                    <path d="M21.3867011,22.71836 L21.3867011,22.7183594 C21.3867011,29.7259711 26.8477634,35.4067715 33.5843242,35.4067715 C40.3208849,35.4067715 45.7819472,29.7259711 45.7819472,22.7183594 L45.7819472,22.7183589 C45.7819472,15.7107472 40.3208849,10.0299468 33.5843242,10.0299468 C26.8477634,10.0299468 21.3867011,15.7107472 21.3867011,22.7183589 L21.3867011,22.71836 Z" fill="#61DDA0"></path>
                    <path d="M32.5411584,27.7354383 L32.4887994,27.7354383 L32.4887994,27.7354383 C32.1467367,27.7195008 31.8272355,27.5602241 31.608765,27.2967136 L27.9235006,22.9075902 L27.9235006,22.9075902 C27.4811127,22.3792784 27.540038,21.5950303 28.0564119,21.1386566 L28.056412,21.1386565 C28.5618822,20.6981898 29.3289592,20.7506062 29.7697318,21.2557326 C29.7760036,21.2629202 29.7821904,21.2701815 29.788291,21.2775148 L32.615676,24.6443244 L39.1525005,18.0636592 L39.1525006,18.0636591 C39.6248497,17.587891 40.3937122,17.5848589 40.8698087,18.0568867 C40.8760768,18.0631013 40.8822769,18.069384 40.8884079,18.0757338 L40.8884079,18.0757339 C41.3643572,18.5737047 41.3590098,19.3592496 40.8763249,19.8507071 L33.4030825,27.3772246 L33.4030825,27.3772245 C33.1747626,27.606243 32.8646721,27.7351194 32.5411734,27.7354383 L32.5411584,27.7354383 Z" fill="#FFFFFF"></path>
                </g>
                <g id="安全" transform="translate(109.636364, 0.000000)">
                    <path d="M91.3511242,52.1317331 L91.3511242,29.1276898 C91.3511242,24.7926946 88.2981624,20.9297046 83.7437439,19.513689 L73.6839845,15.7873321 C68.9543961,14.0359444 64.5000747,11.7007607 60.4586539,8.86872944 L49.8733846,1.41601563 C47.471054,-0.472005208 43.8925824,-0.472005208 41.4902517,1.41601563 L30.8924703,8.85630825 C26.8510495,11.6883395 22.4092403,14.0235232 17.6671398,15.7749109 L7.60738029,19.5012678 C3.05296183,20.9172834 0,24.7802734 0,29.1152686 L0,52.119312 C0,67.4222177 7.99525659,81.8307977 21.5834392,91.0224781 L41.4151789,104.437363 C43.9426309,106.139066 47.4084933,106.139066 49.9359453,104.437363 L69.7676851,91.0224781 C83.3558676,81.8556401 91.3511242,67.4346388 91.3511242,52.1317331 Z" fill="#0DCEA7"></path>
                    <path d="M0.0125121386,29.1276898 L0.0125121386,29.599695 C1.68913872,26.1714467 3.76615373,22.9792009 6.18099649,20.0726425 C2.43986704,21.7867667 0.0125121386,25.2646998 0.0125121386,29.1276898 Z M91.3511242,29.1276898 C91.3511242,24.7926946 88.2981624,20.9297046 83.7437439,19.513689 L78.3009636,17.5014563 C85.5204676,25.0286972 90.2875924,34.8911218 91.3386121,45.83419 L91.3511242,29.1276898 L91.3511242,29.1276898 Z M52.9138343,3.55246025 L49.8733846,1.41601562 C47.471054,-0.472005208 43.8925824,-0.472005208 41.4902517,1.41601562 L39.5758945,2.75750411 C40.8271084,2.65813459 42.1033465,2.60844984 43.3920968,2.60844984 C46.6452529,2.62087103 49.8358482,2.94382196 52.9138343,3.55246025 L52.9138343,3.55246025 Z M43.3920968,98.288874 C38.449802,98.288874 33.6826772,97.5560238 29.2033316,96.1772718 L41.427691,104.449784 C43.955143,106.151487 47.4210055,106.151487 49.9484575,104.449784 L69.7801972,91.0348993 C81.3289012,83.2219709 88.8361844,71.6454221 90.8256144,58.9509663 C86.7841936,81.3215289 67.0775753,98.288874 43.3920968,98.288874 Z" id="形状" fill="#0DCEA7"></path>
                    <path d="M90.8256144,58.9509663 C91.1759543,56.7027309 91.3636364,54.4296532 91.3636364,52.1317331 L91.3636364,45.8217688 C90.3001046,34.8787007 85.5329798,25.0286972 78.3259879,17.4890351 L73.7090087,15.7749109 C68.9794203,14.0235232 64.525099,11.6883395 60.4836782,8.85630825 L52.9138343,3.55246025 C49.8358482,2.94382196 46.657765,2.62087103 43.3920968,2.62087103 C42.1033465,2.62087103 40.8396205,2.67055578 39.5758945,2.7699253 L32.2312691,7.92471902 C35.1591096,7.27881716 38.1995593,6.93102385 41.3275939,6.93102385 C64.2998805,6.93102385 82.9179428,25.4137541 82.9179428,48.2190584 C82.9179428,71.0243627 64.3123926,89.4822505 41.3401061,89.4822505 C19.9693733,89.4822505 2.3647942,73.471337 0.0250242773,52.8770045 C0.27526705,67.9066441 8.23298723,82.0046944 21.5959513,91.0348993 L29.2033316,96.1772718 C33.6951894,97.5436027 38.4623142,98.288874 43.3920968,98.288874 C67.0775753,98.288874 86.7841936,81.3215289 90.8256144,58.9509663 Z M13.9260103,17.1660842 L7.61989243,19.5012678 C7.11940689,19.6627433 6.64394562,19.8490611 6.18099649,20.0602214 C3.76615373,22.9667797 1.68913872,26.1714467 0.0125121386,29.5872738 L0.0125121386,43.5859546 C1.18865317,33.0900493 6.33114215,23.7865783 13.9260103,17.1660842 Z" id="形状" fill="#1DD49C"></path>
                    <path d="M41.3401061,89.4822505 C64.3123926,89.4822505 82.9304549,70.9995203 82.9304549,48.194216 C82.9304549,25.3889117 64.3123926,6.91860266 41.3401061,6.91860266 C38.2120714,6.91860266 35.1716217,7.26639597 32.2437813,7.91229783 L30.9049824,8.85630825 C26.8635617,11.6883395 22.4217524,14.0235232 17.6796519,15.7749109 L13.9260103,17.1660842 C6.33114215,23.7865783 1.18865317,33.0900493 0.0125121386,43.5983758 L0.0125121386,52.1441543 C0.0125121386,52.3925781 0.0125121386,52.6410019 0.0250242773,52.8894257 C2.3647942,73.471337 19.9693733,89.4822505 41.3401061,89.4822505 Z M39.2881153,11.2287555 C58.6068574,11.2287555 74.272055,26.780085 74.272055,45.9584019 C74.272055,65.1367187 58.6068574,80.6880482 39.2881153,80.6880482 C19.9693733,80.6880482 4.30417569,65.1367187 4.30417569,45.9584019 C4.30417569,26.780085 19.9693733,11.2287555 39.2881153,11.2287555 Z" id="形状" fill="#2DDB92"></path>
                    <path d="M39.2881153,80.6880482 C58.6068574,80.6880482 74.272055,65.1367188 74.272055,45.9584019 C74.272055,26.780085 58.6068574,11.2287555 39.2881153,11.2287555 C19.9693733,11.2287555 4.30417569,26.780085 4.30417569,45.9584019 C4.30417569,65.1367188 19.9693733,80.6880482 39.2881153,80.6880482 Z M37.2361246,15.5389083 C52.9138343,15.5389083 65.613655,28.1464158 65.613655,43.7101665 C65.613655,59.2739172 52.9138343,71.8814248 37.2361246,71.8814248 C21.5584149,71.8814248 8.85859416,59.2739172 8.85859416,43.7101665 C8.85859416,28.1464158 21.570927,15.5389083 37.2361246,15.5389083 Z" id="形状" fill="#3DE188"></path>
                    <path d="M37.2361246,71.8814248 C52.9138343,71.8814248 65.613655,59.2739172 65.613655,43.7101665 C65.613655,28.1464158 52.9138343,15.5389083 37.2361246,15.5389083 C21.5584149,15.5389083 8.85859416,28.1464158 8.85859416,43.7101665 C8.85859416,59.2739172 21.570927,71.8814248 37.2361246,71.8814248 Z M35.1841339,19.8366399 C47.2082991,19.8366399 56.9552551,29.5127467 56.9552551,41.44951 C56.9552551,53.3862733 47.2082991,63.0623801 35.1841339,63.0623801 C23.1599686,63.0623801 13.4130126,53.3862733 13.4130126,41.44951 C13.4130126,29.5127467 23.1599686,19.8366399 35.1841339,19.8366399 Z" id="形状" fill="#4CE77D"></path>
                    <path d="M35.1841339,63.0748013 C47.2082991,63.0748013 56.9552551,53.3986945 56.9552551,41.4619312 C56.9552551,29.5251679 47.2082991,19.8490611 35.1841339,19.8490611 C23.1599686,19.8490611 13.4130126,29.5251679 13.4130126,41.4619312 C13.4130126,53.3986945 23.1599686,63.0748013 35.1841339,63.0748013 Z M33.1321431,24.1467928 C41.515276,24.1467928 48.3093673,30.8914988 48.3093673,39.2136959 C48.3093673,47.535893 41.515276,54.280599 33.1321431,54.280599 C24.7490102,54.280599 17.954919,47.535893 17.954919,39.2136959 C17.954919,30.8914988 24.7615224,24.1467928 33.1321431,24.1467928 L33.1321431,24.1467928 Z" id="形状" fill="#5CEE73"></path>
                    <path d="M17.954919,39.2136959 L17.954919,39.2136981 C17.954919,47.534914 24.7499987,54.2806012 33.1321431,54.2806012 C41.5142876,54.2806012 48.3093673,47.534914 48.3093673,39.2136981 L48.3093673,39.2136981 C48.3093673,30.8924823 41.5142876,24.146795 33.1321431,24.146795 C24.7499987,24.146795 17.954919,30.8924823 17.954919,39.2136981 L17.954919,39.2136959 Z" fill="#6CF468"></path>
                    <path d="M45.6818182,2.24823533 C46.7203257,2.24823533 47.7087846,2.58360746 48.4720251,3.17982456 L48.5220737,3.21708813 L48.5721222,3.2543517 L59.1699036,10.6946443 C63.3614701,13.6384663 67.9909614,16.0605983 72.9082319,17.8865132 L82.9679913,21.6128701 L83.0180399,21.6377124 L83.0806006,21.6501336 C86.6840965,22.7804619 89.1114514,25.7863898 89.1114514,29.140111 L89.1114514,52.1441543 C89.1114514,55.7338782 88.6485023,59.323602 87.722604,62.8263775 C86.8092179,66.2794682 85.4579069,69.6331894 83.6936954,72.813014 C81.9294838,75.9928385 79.7523717,78.9987664 77.2249197,81.7314282 C74.6599313,84.5137747 71.7320908,87.022855 68.5164712,89.1965632 L48.6847315,102.599027 C47.833906,103.170402 46.7703742,103.493353 45.6943303,103.493353 C44.6182864,103.493353 43.5547546,103.170402 42.7039292,102.599027 L22.8721894,89.184142 C19.6565698,87.0104338 16.7287294,84.5013535 14.1637409,81.719007 C11.6362889,78.9863453 9.45917681,75.9804174 7.69496526,72.8005928 C5.93075372,69.6207682 4.57944274,66.267047 3.66605662,62.8139563 C2.74015836,59.323602 2.27720923,55.7338782 2.27720923,52.1317331 L2.27720923,29.1276898 C2.27720923,25.7739686 4.70456413,22.7680407 8.30806006,21.6377124 L8.37062075,21.6252913 L8.42066931,21.6004489 L18.4804288,17.874092 C23.3976993,16.0481771 28.0146784,13.6384663 32.218757,10.6822231 L42.8165384,3.24193051 L42.866587,3.20466694 L42.9166355,3.16740337 C43.6548517,2.57118627 44.6558228,2.24823533 45.6818182,2.24823533 M45.6818182,0.0124211897 C44.1928737,0.0124211897 42.691417,0.484426398 41.4902517,1.42843681 L30.8924703,8.86872944 C26.8510495,11.7007607 22.4092403,14.0359444 17.6671398,15.7873321 L7.60738029,19.513689 C3.05296183,20.9297046 0,24.7926946 0,29.1276898 L0,52.1317331 C0,67.4346388 7.99525659,81.8432189 21.5834392,91.0348993 L41.4151789,104.449784 C42.6789049,105.306846 44.1803615,105.729167 45.669306,105.729167 C47.1707627,105.729167 48.6722193,105.306846 49.9234332,104.449784 L69.7551729,91.0348993 C83.3433555,81.8432189 91.3386121,67.4346388 91.3386121,52.1317331 L91.3386121,29.1276898 C91.3386121,24.7926946 88.2856503,20.9297046 83.7312318,19.513689 L73.6714723,15.7873321 C68.9418839,14.0359444 64.4875626,11.7007607 60.4461418,8.86872944 L49.8733846,1.41601563 C48.6722193,0.484426398 47.1832748,0.0124211897 45.6818182,0.0124211897 Z" id="形状" fill="#0EC69A"></path>
                    <path d="M21.9838276,25.4510177 C21.0829536,25.4510177 20.219616,24.9044853 19.8817883,24.0101597 C19.4438634,22.854989 20.0194218,21.5631853 21.1830507,21.1284437 C29.7538657,17.874092 35.0089639,13.6384663 35.0590125,13.6012027 C36.0224472,12.8186678 37.4363188,12.9553008 38.2245836,13.9117325 C39.0128483,14.8681641 38.8752148,16.2717585 37.9117801,17.0542934 C37.6740495,17.2406113 32.0310749,21.7991879 22.7846045,25.3019634 C22.5218496,25.4013329 22.2590946,25.4510177 21.9838276,25.4510177 Z" fill="#FFFFFF"></path>
                    <path d="M13.8008889,28.4569456 C12.8875028,28.4569456 12.0241652,27.8979921 11.6863375,27.0036664 C11.2484126,25.8484958 11.8489953,24.556692 13.0126242,24.1343716 L14.3263987,23.6499452 C15.4900276,23.2152035 16.7912901,23.8114206 17.2167028,24.9665913 C17.6546276,26.1217619 17.054045,27.4135657 15.8904161,27.8358861 L14.5766415,28.3203125 C14.3138866,28.4072608 14.0511317,28.4569456 13.8008889,28.4569456 L13.8008889,28.4569456 Z" fill="#FFFFFF"></path>
                    <path d="M67.6090909,36.9632004 C67.6090909,33.6642222 64.934814,30.9895833 61.6362821,30.9895833 C58.3377503,30.9895833 55.6634734,33.6642222 55.6634734,36.9632004 C55.6634734,39.2010586 56.8940004,41.1511556 58.7149578,42.1741642 L56.3343975,52.7455394 C56.2753116,52.7438266 56.2157976,52.7425419 56.1558555,52.7425419 C54.5065896,52.7425419 53.0136014,53.4109875 51.9329298,54.4918054 L41.030306,48.1970262 L41.0303061,48.1970257 C41.1379061,47.7432706 41.192221,47.2785146 41.1921499,46.8121743 C41.1921499,43.5131961 38.517873,40.8385572 35.2193412,40.8385572 C31.9208094,40.8385572 29.2465324,43.5131961 29.2465324,46.8121743 C29.2465324,49.015347 30.4393815,50.939751 32.214526,51.9756061 L29.7783051,62.7932057 C29.7611787,62.7932057 29.7444806,62.7927775 29.7277824,62.7927775 C26.4288224,62.7923497 23.7545455,65.4669881 23.7545455,68.7659663 C23.7545455,72.0649445 26.4288224,74.7395833 29.7273542,74.7395833 C33.025886,74.7395833 35.700163,72.0649445 35.700163,68.7659663 C35.700163,66.5713579 34.5163052,64.6533772 32.7531492,63.6149527 L35.191939,52.7857913 C35.2009304,52.7857913 35.2103498,52.7862195 35.2193412,52.7862195 C36.9315464,52.7862195 38.4754853,52.0655315 39.564292,50.9110605 L50.3885628,57.1613052 L50.3885626,57.161306 C50.252118,57.6687508 50.1831614,58.1919711 50.1834748,58.7174439 C50.1834748,62.0164221 52.8577517,64.6910609 56.1562835,64.6910609 C59.4548153,64.6910609 62.1290923,62.0164221 62.1290923,58.7174439 C62.1290923,56.5699393 60.9957572,54.6870723 59.2946841,53.6345167 L61.7039311,42.9368177 C64.9712073,42.8999911 67.6090909,40.2399116 67.6090909,36.9632007 L67.6090909,36.9632004 Z M29.7384862,71.6238822 C28.1461654,71.6238822 26.8518427,70.3285279 26.8518427,68.736848 C26.8518427,67.1443117 28.1461654,65.8498139 29.7384862,65.8498139 C31.3299508,65.8498139 32.6251297,67.1443117 32.6251297,68.736848 C32.6251297,70.3285279 31.3299508,71.6238822 29.7384862,71.6238822 Z M35.2304732,49.6705184 C33.6381523,49.6705184 32.3438297,48.3751641 32.3438297,46.7834842 C32.3438297,45.1909479 33.6381523,43.8964501 35.2304732,43.8964501 C36.8219377,43.8964501 38.1171167,45.1909479 38.1171167,46.7834842 C38.1171167,48.3751641 36.8219377,49.6705184 35.2304732,49.6705184 Z M56.1674157,61.5749308 C54.5750949,61.5749308 53.2807722,60.2795766 53.2807722,58.6878967 C53.2807722,57.0953604 54.5750949,55.8008626 56.1674157,55.8008626 C57.7588803,55.8008626 59.0540592,57.0953604 59.0540592,58.6878967 C59.0540592,60.2795766 57.7588803,61.5749308 56.1674157,61.5749308 Z M61.6478424,34.0474758 C63.2393069,34.0474758 64.5344859,35.3419736 64.5344859,36.9345099 C64.5344859,38.5261898 63.2393069,39.821544 61.6478424,39.821544 C60.0555216,39.821544 58.7611989,38.5261898 58.7611989,36.9345099 C58.7611989,35.3419736 60.0555216,34.0474758 61.6478424,34.0474758 Z" id="形状" fill="#FFFFFF"></path>
                </g>
            </g>
        </g>
    </g>
</svg>