<?xml version="1.0" encoding="UTF-8"?>
<svg width="183px" height="61px" viewBox="0 0 183 61" version="1.1" xmlns="http://www.w3.org/2000/svg" xmlns:xlink="http://www.w3.org/1999/xlink">
    <title>logo</title>
    <g stroke="none" stroke-width="1" fill="none" fill-rule="evenodd">
        <g transform="translate(-60.000000, -51.000000)">
            <g transform="translate(62.390677, 55.896601)">
                <g>
                    <path d="M-1.30375873,45.8705346 L-1.30375873,29.5898066 C-1.30375873,15.7184687 9.96614346,4.47352757 23.8682723,4.47352757 C37.7704012,4.47352757 49.0403034,15.7184687 49.0403034,29.5898066 L49.0403034,45.6363183" stroke="#3C6DD8" stroke-width="9.76744186" stroke-linecap="round" transform="translate(23.868272, 25.172031) rotate(-270.000000) translate(-23.868272, -25.172031) "></path>
                    <g transform="translate(15.305221, 25.723568) scale(-1, 1) translate(-15.305221, -25.723568) translate(0.000000, 14.638283)" fill-rule="nonzero">
                        <path d="M27.1920135,22.1705698 C25.1409588,22.1705698 23.7735849,20.8062244 23.7735849,18.7597124 L23.7735849,3.41085735 C23.7735849,1.36434534 25.1409588,0 27.1920135,0 C29.2430683,0 30.6104421,1.36434534 30.6104421,3.41085735 L30.6104421,18.7597124 C30.6104421,20.8062244 29.2430683,22.1705698 27.1920135,22.1705698 Z" fill="#F2BF20"></path>
                        <path d="M14.605998,19.8450024 C12.5549432,19.8450024 11.1875694,18.4806571 11.1875694,16.4341451 L11.1875694,6.20155502 C11.1875694,4.15504301 12.5549432,2.79069767 14.605998,2.79069767 C16.6570528,2.79069767 18.0244266,4.15504301 18.0244266,6.20155502 L18.0244266,16.4341451 C18.0244266,18.4806571 16.6570528,19.8450024 14.605998,19.8450024 Z" fill="#6A95F1"></path>
                        <path d="M3.41842862,17.5193931 C1.36737385,17.5193931 0,16.1550477 0,14.1085357 L0,8.9922527 C0,6.94574069 1.36737385,5.58139535 3.41842862,5.58139535 C5.46948339,5.58139535 6.83685724,6.94574069 6.83685724,8.9922527 L6.83685724,14.1085357 C6.83685724,16.1550477 5.46948339,17.5193931 3.41842862,17.5193931 Z" fill="#8AA7E7"></path>
                    </g>
                </g>
                <path d="M71.7586186,40.103399 C75.0032698,40.103399 77.868386,39.4782827 80.3539674,38.2280501 C82.8395488,36.9778176 84.7595488,35.2215385 86.1139674,32.9592129 C87.468386,30.6968873 88.1455953,28.0922362 88.1455953,25.1452594 C88.1455953,22.1982827 87.468386,19.5936315 86.1139674,17.3313059 C84.7595488,15.0689804 82.8395488,13.3127013 80.3539674,12.0624687 C77.868386,10.8122362 75.0032698,10.1871199 71.7586186,10.1871199 L71.7586186,10.1871199 L59.9260604,10.1871199 L59.9260604,40.103399 L71.7586186,40.103399 Z M71.4907116,33.7182827 L67.2935023,33.7182827 L67.2935023,16.5722362 L71.4907116,16.5722362 C74.2888511,16.5722362 76.5288511,17.3536315 78.2107116,18.9164222 C79.8925721,20.4792129 80.7335023,22.555492 80.7335023,25.1452594 C80.7335023,27.7350269 79.8925721,29.8113059 78.2107116,31.3740966 C76.5288511,32.9368873 74.2888511,33.7182827 71.4907116,33.7182827 L71.4907116,33.7182827 Z M101.317688,40.7731664 C104.353967,40.7731664 106.809781,40.1182827 108.68513,38.8085152 C110.560479,37.4987478 111.498153,35.6382827 111.498153,33.2271199 C111.498153,31.5303757 110.977223,30.0940966 109.935363,28.9182827 C108.893502,27.7424687 107.345595,26.9313059 105.291642,26.4847943 L105.291642,26.4847943 L100.022805,25.4131664 C99.3679209,25.2643292 98.9214093,25.0559571 98.6832698,24.7880501 C98.4451302,24.5201432 98.3260604,24.207585 98.3260604,23.8503757 C98.3260604,23.3740966 98.5269907,22.9647943 98.9288511,22.6224687 C99.3307116,22.2801432 99.9781535,22.1089804 100.871177,22.1089804 C101.913037,22.1089804 102.768851,22.3620036 103.438619,22.8680501 C104.108386,23.3740966 104.502805,23.9992129 104.621874,24.743399 L104.621874,24.743399 L111.140944,23.4485152 C110.694433,21.4838641 109.570712,19.9210734 107.769781,18.7601432 C105.968851,17.5992129 103.699084,17.0187478 100.960479,17.0187478 C99.0851302,17.0187478 97.4181535,17.3313059 95.9595488,17.9564222 C94.5009442,18.5815385 93.3623395,19.4671199 92.5437349,20.6131664 C91.7251302,21.7592129 91.3158279,23.0913059 91.3158279,24.6094455 C91.3158279,26.3657245 91.8814093,27.7945618 93.0125721,28.8959571 C94.1437349,29.9973525 95.7511767,30.7415385 97.8348977,31.1285152 L97.8348977,31.1285152 L102.389316,32.0215385 C103.877688,32.2894455 104.621874,32.8401432 104.621874,33.6736315 C104.621874,34.179678 104.361409,34.6038641 103.840479,34.9461897 C103.319549,35.2885152 102.612572,35.459678 101.719549,35.459678 C100.677688,35.459678 99.792107,35.2438641 99.0628046,34.8122362 C98.3335023,34.3806083 97.8944325,33.7182827 97.7455953,32.8252594 L97.7455953,32.8252594 L90.7800139,34.2540966 C91.1372232,36.4271199 92.2758279,38.0568873 94.1958279,39.143399 C96.1158279,40.2299106 98.4897814,40.7731664 101.317688,40.7731664 Z M125.786526,40.7731664 C126.977223,40.7731664 128.048851,40.6317711 129.001409,40.3489804 C129.953967,40.0661897 130.921409,39.6568873 131.903735,39.1210734 L131.903735,39.1210734 L130.251642,33.4950269 C129.775363,33.7629338 129.239549,33.9787478 128.6442,34.1424687 C128.048851,34.3061897 127.498153,34.3880501 126.992107,34.3880501 C124.997688,34.3880501 124.000479,33.3015385 124.000479,31.1285152 L124.000479,31.1285152 L124.000479,23.3592129 L130.608851,23.3592129 L130.608851,17.6885152 L124.000479,17.6885152 L124.000479,11.0801432 L116.856293,11.0801432 L116.856293,17.6885152 L112.793037,17.6885152 L112.793037,23.3592129 L116.856293,23.3592129 L116.856293,31.8429338 C116.856293,34.7601432 117.637688,36.9778176 119.200479,38.4959571 C120.76327,40.0140966 122.958619,40.7731664 125.786526,40.7731664 Z M144.093502,40.7731664 C146.921409,40.7731664 149.24327,39.9545618 151.059084,38.3173525 L151.059084,38.3173525 L151.059084,40.103399 L158.20327,40.103399 L158.20327,17.6885152 L151.059084,17.6885152 L151.059084,19.4745618 C149.24327,17.8373525 146.921409,17.0187478 144.093502,17.0187478 C142.128851,17.0187478 140.305595,17.5247943 138.623735,18.5368873 C136.941874,19.5489804 135.609781,20.955492 134.627456,22.7564222 C133.64513,24.5573525 133.153967,26.6038641 133.153967,28.8959571 C133.153967,31.1880501 133.64513,33.2420036 134.627456,35.0578176 C135.609781,36.8736315 136.941874,38.2801432 138.623735,39.2773525 C140.305595,40.2745618 142.128851,40.7731664 144.093502,40.7731664 Z M145.566991,34.7006083 C143.989316,34.7006083 142.694433,34.1647943 141.68234,33.0931664 C140.670246,32.0215385 140.1642,30.6224687 140.1642,28.8959571 C140.1642,27.1992129 140.670246,25.807585 141.68234,24.7210734 C142.694433,23.6345618 143.989316,23.0913059 145.566991,23.0913059 C146.549316,23.0913059 147.457223,23.3368873 148.290712,23.8280501 C149.1242,24.3192129 149.793967,25.0113059 150.300014,25.9043292 C150.80606,26.7973525 151.059084,27.7945618 151.059084,28.8959571 C151.059084,30.0271199 150.80606,31.0317711 150.300014,31.9099106 C149.793967,32.7880501 149.1242,33.4727013 148.290712,33.9638641 C147.457223,34.4550269 146.549316,34.7006083 145.566991,34.7006083 Z M170.526991,40.103399 L170.526991,33.0931664 C170.526991,27.4968873 173.101874,24.6987478 178.251642,24.6987478 L178.251642,24.6987478 L179.546526,24.6987478 L179.859084,17.5545618 C179.382805,17.435492 178.846991,17.3759571 178.251642,17.3759571 C174.947456,17.3759571 172.372572,18.9089804 170.526991,21.9750269 L170.526991,21.9750269 L170.526991,17.6885152 L163.382805,17.6885152 L163.382805,40.103399 L170.526991,40.103399 Z" id="Dstar" fill="#000000" fill-rule="nonzero"></path>
            </g>
        </g>
    </g>
</svg>